<svg width="24" height="24" viewBox="0 0 24 24" fill="none" xmlns="http://www.w3.org/2000/svg">
<path d="M7 4C4.8 4 3 5.8 3 8C3 10.2 4.8 12 7 12C9.2 12 11 10.2 11 8C11 5.8 9.2 4 7 4ZM7 10C5.9 10 5 9.1 5 8C5 6.9 5.9 6 7 6C8.1 6 9 6.9 9 8C9 9.1 8.1 10 7 10ZM0 18C0 15.8 3.1 14 7 14C8.5 14 9.9 14.3 11 14.7V17C10.2 16.5 8.8 16 7 16C3.8 16 2 17.4 2 18H11V20H0V18ZM22 4H15C13.9 4 13 4.9 13 6V18C13 19.1 13.9 20 15 20H22C23.1 20 24 19.1 24 18V6C24 4.9 23.1 4 22 4ZM22 18H15V6H22V18Z" fill="white"/>
</svg>
