<svg width="535" height="199" viewBox="0 0 535 199" fill="none" xmlns="http://www.w3.org/2000/svg">
<rect x="27.9121" y="1.47266" width="495.614" height="181.798" stroke="#BDBDBD" stroke-dasharray="1 1"/>
<path d="M28.1875 54.6074H524.024" stroke="#BDBDBD" stroke-dasharray="2 2"/>
<path d="M28.1875 29.4316H524.024" stroke="#BDBDBD" stroke-dasharray="2 2"/>
<path d="M28.1875 79.7832H524.024" stroke="#BDBDBD" stroke-dasharray="2 2"/>
<path d="M28.1875 104.959H524.024" stroke="#BDBDBD" stroke-dasharray="2 2"/>
<path d="M28.1875 130.135H524.024" stroke="#BDBDBD" stroke-dasharray="2 2"/>
<path d="M28.1875 155.311H524.024" stroke="#BDBDBD" stroke-dasharray="2 2"/>
<path d="M83.3691 0.972656L83.3691 183.77" stroke="#BDBDBD" stroke-dasharray="2 2"/>
<path d="M146.32 0.972656L146.32 183.77" stroke="#BDBDBD" stroke-dasharray="2 2"/>
<path d="M210.047 0.972656L210.047 183.77" stroke="#BDBDBD" stroke-dasharray="2 2"/>
<path d="M273 0.972656L273 183.77" stroke="#BDBDBD" stroke-dasharray="2 2"/>
<path d="M335.949 0.972656L335.949 183.77" stroke="#BDBDBD" stroke-dasharray="2 2"/>
<path d="M399.678 0.972656L399.678 183.77" stroke="#BDBDBD" stroke-dasharray="2 2"/>
<path d="M462.631 0.972656L462.631 183.77" stroke="#BDBDBD" stroke-dasharray="2 2"/>
<path d="M30.2246 196.144C29.7431 196.144 29.3329 196.013 28.9941 195.751C28.6554 195.487 28.3965 195.104 28.2175 194.604C28.0385 194.101 27.949 193.494 27.949 192.782C27.949 192.075 28.0385 191.471 28.2175 190.97C28.3986 190.467 28.6586 190.083 28.9973 189.819C29.3382 189.553 29.7473 189.42 30.2246 189.42C30.7019 189.42 31.1099 189.553 31.4487 189.819C31.7896 190.083 32.0495 190.467 32.2285 190.97C32.4096 191.471 32.5002 192.075 32.5002 192.782C32.5002 193.494 32.4107 194.101 32.2317 194.604C32.0527 195.104 31.7939 195.487 31.4551 195.751C31.1163 196.013 30.7061 196.144 30.2246 196.144ZM30.2246 195.441C30.7019 195.441 31.0726 195.211 31.3368 194.751C31.601 194.29 31.7331 193.634 31.7331 192.782C31.7331 192.215 31.6724 191.733 31.551 191.334C31.4316 190.936 31.2591 190.632 31.0332 190.423C30.8095 190.214 30.54 190.11 30.2246 190.11C29.7516 190.11 29.3819 190.343 29.1156 190.81C28.8493 191.275 28.7161 191.932 28.7161 192.782C28.7161 193.349 28.7757 193.83 28.8951 194.227C29.0144 194.623 29.1859 194.924 29.4096 195.131C29.6355 195.338 29.9071 195.441 30.2246 195.441Z" fill="#575757"/>
<path d="M86.3478 189.509V196.055H85.5552V190.34H85.5169L83.9189 191.401V190.596L85.5552 189.509H86.3478ZM88.4061 196.106C88.2484 196.106 88.1131 196.049 88.0002 195.936C87.8873 195.824 87.8308 195.688 87.8308 195.531C87.8308 195.373 87.8873 195.238 88.0002 195.125C88.1131 195.012 88.2484 194.955 88.4061 194.955C88.5637 194.955 88.699 195.012 88.812 195.125C88.9249 195.238 88.9814 195.373 88.9814 195.531C88.9814 195.635 88.9547 195.731 88.9015 195.818C88.8503 195.906 88.7811 195.976 88.6937 196.029C88.6085 196.08 88.5126 196.106 88.4061 196.106ZM90.3221 196.055V195.479L92.4826 193.114C92.7362 192.837 92.945 192.597 93.109 192.392C93.2731 192.185 93.3945 191.991 93.4734 191.81C93.5543 191.627 93.5948 191.435 93.5948 191.235C93.5948 191.005 93.5394 190.806 93.4286 190.637C93.32 190.469 93.1708 190.339 92.9812 190.248C92.7915 190.156 92.5785 190.11 92.342 190.11C92.0906 190.11 91.8711 190.162 91.6836 190.267C91.4982 190.369 91.3544 190.513 91.2521 190.698C91.152 190.884 91.1019 191.101 91.1019 191.35H90.3477C90.3477 190.967 90.4361 190.63 90.6129 190.34C90.7898 190.05 91.0305 189.825 91.3352 189.663C91.642 189.501 91.9862 189.42 92.3675 189.42C92.7511 189.42 93.0909 189.501 93.3871 189.663C93.6832 189.825 93.9155 190.043 94.0838 190.318C94.2521 190.593 94.3363 190.898 94.3363 191.235C94.3363 191.476 94.2926 191.711 94.2053 191.941C94.12 192.169 93.9709 192.424 93.7578 192.705C93.5469 192.984 93.2539 193.325 92.8789 193.728L91.4087 195.3V195.352H94.4513V196.055H90.3221ZM97.8168 196.144C97.4418 196.144 97.104 196.07 96.8036 195.92C96.5032 195.771 96.2624 195.567 96.0813 195.307C95.9002 195.047 95.8011 194.751 95.7841 194.418H96.5511C96.581 194.714 96.7152 194.96 96.9538 195.153C97.1946 195.345 97.4822 195.441 97.8168 195.441C98.0852 195.441 98.3239 195.378 98.5327 195.252C98.7436 195.127 98.9087 194.954 99.0281 194.735C99.1495 194.513 99.2102 194.263 99.2102 193.984C99.2102 193.698 99.1474 193.444 99.0217 193.22C98.8981 192.994 98.7276 192.816 98.5103 192.686C98.293 192.556 98.0447 192.49 97.7656 192.488C97.5653 192.486 97.3597 192.517 97.1488 192.581C96.9379 192.642 96.7642 192.722 96.6278 192.82L95.8864 192.731L96.2827 189.509H99.6832V190.212H96.9474L96.7173 192.143H96.7557C96.8899 192.036 97.0582 191.948 97.2607 191.877C97.4631 191.807 97.674 191.772 97.8935 191.772C98.294 191.772 98.6509 191.868 98.9641 192.06C99.2795 192.249 99.5266 192.509 99.7056 192.839C99.8867 193.17 99.9773 193.547 99.9773 193.971C99.9773 194.388 99.8835 194.761 99.696 195.089C99.5107 195.415 99.255 195.673 98.929 195.863C98.603 196.05 98.2322 196.144 97.8168 196.144Z" fill="#575757"/>
<path d="M146.998 196.055V195.479L149.158 193.114C149.412 192.837 149.621 192.597 149.785 192.392C149.949 192.185 150.07 191.991 150.149 191.81C150.23 191.627 150.271 191.435 150.271 191.235C150.271 191.005 150.215 190.806 150.104 190.637C149.996 190.469 149.847 190.339 149.657 190.248C149.467 190.156 149.254 190.11 149.018 190.11C148.766 190.11 148.547 190.162 148.359 190.267C148.174 190.369 148.03 190.513 147.928 190.698C147.828 190.884 147.778 191.101 147.778 191.35H147.023C147.023 190.967 147.112 190.63 147.289 190.34C147.466 190.05 147.706 189.825 148.011 189.663C148.318 189.501 148.662 189.42 149.043 189.42C149.427 189.42 149.767 189.501 150.063 189.663C150.359 189.825 150.591 190.043 150.76 190.318C150.928 190.593 151.012 190.898 151.012 191.235C151.012 191.476 150.968 191.711 150.881 191.941C150.796 192.169 150.647 192.424 150.434 192.705C150.223 192.984 149.93 193.325 149.555 193.728L148.085 195.3V195.352H151.127V196.055H146.998ZM153.01 196.106C152.852 196.106 152.717 196.049 152.604 195.936C152.491 195.824 152.434 195.688 152.434 195.531C152.434 195.373 152.491 195.238 152.604 195.125C152.717 195.012 152.852 194.955 153.01 194.955C153.167 194.955 153.303 195.012 153.415 195.125C153.528 195.238 153.585 195.373 153.585 195.531C153.585 195.635 153.558 195.731 153.505 195.818C153.454 195.906 153.385 195.976 153.297 196.029C153.212 196.08 153.116 196.106 153.01 196.106ZM156.839 196.144C156.464 196.144 156.127 196.07 155.826 195.92C155.526 195.771 155.285 195.567 155.104 195.307C154.923 195.047 154.824 194.751 154.807 194.418H155.574C155.603 194.714 155.738 194.96 155.976 195.153C156.217 195.345 156.505 195.441 156.839 195.441C157.108 195.441 157.346 195.378 157.555 195.252C157.766 195.127 157.931 194.954 158.051 194.735C158.172 194.513 158.233 194.263 158.233 193.984C158.233 193.698 158.17 193.444 158.044 193.22C157.921 192.994 157.75 192.816 157.533 192.686C157.315 192.556 157.067 192.49 156.788 192.488C156.588 192.486 156.382 192.517 156.171 192.581C155.96 192.642 155.787 192.722 155.65 192.82L154.909 192.731L155.305 189.509H158.706V190.212H155.97L155.74 192.143H155.778C155.912 192.036 156.081 191.948 156.283 191.877C156.486 191.807 156.696 191.772 156.916 191.772C157.316 191.772 157.673 191.868 157.987 192.06C158.302 192.249 158.549 192.509 158.728 192.839C158.909 193.17 159 193.547 159 193.971C159 194.388 158.906 194.761 158.718 195.089C158.533 195.415 158.277 195.673 157.951 195.863C157.625 196.05 157.255 196.144 156.839 196.144Z" fill="#575757"/>
<path d="M212.936 196.144C212.514 196.144 212.138 196.072 211.808 195.927C211.48 195.782 211.219 195.581 211.025 195.323C210.833 195.063 210.729 194.761 210.712 194.418H211.517C211.534 194.629 211.607 194.811 211.734 194.965C211.862 195.116 212.029 195.233 212.236 195.316C212.443 195.4 212.672 195.441 212.923 195.441C213.205 195.441 213.454 195.392 213.671 195.294C213.888 195.196 214.059 195.06 214.183 194.885C214.306 194.71 214.368 194.508 214.368 194.278C214.368 194.037 214.308 193.825 214.189 193.642C214.07 193.456 213.895 193.311 213.665 193.207C213.435 193.103 213.153 193.05 212.821 193.05H212.297V192.347H212.821C213.081 192.347 213.309 192.3 213.505 192.207C213.703 192.113 213.858 191.981 213.968 191.81C214.081 191.64 214.138 191.44 214.138 191.21C214.138 190.988 214.089 190.795 213.991 190.631C213.893 190.467 213.754 190.339 213.575 190.248C213.398 190.156 213.19 190.11 212.949 190.11C212.723 190.11 212.51 190.152 212.31 190.235C212.112 190.316 211.95 190.434 211.824 190.589C211.698 190.743 211.63 190.928 211.619 191.146H210.852C210.865 190.803 210.968 190.502 211.162 190.244C211.356 189.984 211.61 189.782 211.923 189.637C212.238 189.492 212.585 189.42 212.962 189.42C213.366 189.42 213.714 189.502 214.004 189.666C214.293 189.828 214.516 190.042 214.672 190.308C214.827 190.575 214.905 190.862 214.905 191.171C214.905 191.54 214.808 191.854 214.614 192.114C214.422 192.374 214.161 192.554 213.831 192.654V192.705C214.244 192.773 214.567 192.949 214.799 193.233C215.032 193.514 215.148 193.862 215.148 194.278C215.148 194.634 215.051 194.953 214.857 195.237C214.665 195.518 214.403 195.739 214.071 195.901C213.738 196.063 213.36 196.144 212.936 196.144ZM216.815 196.106C216.658 196.106 216.522 196.049 216.409 195.936C216.296 195.824 216.24 195.688 216.24 195.531C216.24 195.373 216.296 195.238 216.409 195.125C216.522 195.012 216.658 194.955 216.815 194.955C216.973 194.955 217.108 195.012 217.221 195.125C217.334 195.238 217.391 195.373 217.391 195.531C217.391 195.635 217.364 195.731 217.311 195.818C217.259 195.906 217.19 195.976 217.103 196.029C217.018 196.08 216.922 196.106 216.815 196.106ZM218.804 196.055L221.732 190.263V190.212H218.357V189.509H222.55V190.251L219.635 196.055H218.804ZM225.699 196.144C225.324 196.144 224.986 196.07 224.685 195.92C224.385 195.771 224.144 195.567 223.963 195.307C223.782 195.047 223.683 194.751 223.666 194.418H224.433C224.463 194.714 224.597 194.96 224.836 195.153C225.076 195.345 225.364 195.441 225.699 195.441C225.967 195.441 226.206 195.378 226.415 195.252C226.625 195.127 226.791 194.954 226.91 194.735C227.031 194.513 227.092 194.263 227.092 193.984C227.092 193.698 227.029 193.444 226.903 193.22C226.78 192.994 226.609 192.816 226.392 192.686C226.175 192.556 225.927 192.49 225.647 192.488C225.447 192.486 225.242 192.517 225.031 192.581C224.82 192.642 224.646 192.722 224.51 192.82L223.768 192.731L224.165 189.509H227.565V190.212H224.829L224.599 192.143H224.638C224.772 192.036 224.94 191.948 225.142 191.877C225.345 191.807 225.556 191.772 225.775 191.772C226.176 191.772 226.533 191.868 226.846 192.06C227.161 192.249 227.408 192.509 227.587 192.839C227.769 193.17 227.859 193.547 227.859 193.971C227.859 194.388 227.765 194.761 227.578 195.089C227.392 195.415 227.137 195.673 226.811 195.863C226.485 196.05 226.114 196.144 225.699 196.144Z" fill="#575757"/>
<path d="M275.723 196.144C275.348 196.144 275.01 196.07 274.71 195.92C274.409 195.771 274.169 195.567 273.988 195.307C273.806 195.047 273.707 194.751 273.69 194.418H274.457C274.487 194.714 274.621 194.96 274.86 195.153C275.101 195.345 275.388 195.441 275.723 195.441C275.991 195.441 276.23 195.378 276.439 195.252C276.65 195.127 276.815 194.954 276.934 194.735C277.056 194.513 277.116 194.263 277.116 193.984C277.116 193.698 277.054 193.444 276.928 193.22C276.804 192.994 276.634 192.816 276.417 192.686C276.199 192.556 275.951 192.49 275.672 192.488C275.472 192.486 275.266 192.517 275.055 192.581C274.844 192.642 274.67 192.722 274.534 192.82L273.793 192.731L274.189 189.509H277.589V190.212H274.854L274.624 192.143H274.662C274.796 192.036 274.964 191.948 275.167 191.877C275.369 191.807 275.58 191.772 275.8 191.772C276.2 191.772 276.557 191.868 276.87 192.06C277.186 192.249 277.433 192.509 277.612 192.839C277.793 193.17 277.884 193.547 277.884 193.971C277.884 194.388 277.79 194.761 277.602 195.089C277.417 195.415 277.161 195.673 276.835 195.863C276.509 196.05 276.138 196.144 275.723 196.144Z" fill="#575757"/>
<path d="M338.8 196.144C338.532 196.14 338.263 196.089 337.995 195.991C337.726 195.893 337.481 195.728 337.26 195.495C337.038 195.261 336.86 194.945 336.726 194.546C336.592 194.146 336.525 193.643 336.525 193.038C336.525 192.458 336.579 191.945 336.688 191.497C336.796 191.048 336.954 190.669 337.161 190.363C337.367 190.054 337.616 189.819 337.908 189.659C338.202 189.5 338.534 189.42 338.902 189.42C339.269 189.42 339.595 189.493 339.88 189.64C340.168 189.785 340.402 189.988 340.583 190.248C340.765 190.507 340.882 190.807 340.935 191.146H340.155C340.083 190.852 339.942 190.608 339.733 190.414C339.525 190.22 339.248 190.123 338.902 190.123C338.395 190.123 337.996 190.343 337.704 190.784C337.414 191.225 337.268 191.844 337.266 192.641H337.317C337.436 192.46 337.578 192.306 337.742 192.178C337.908 192.048 338.092 191.948 338.292 191.877C338.492 191.807 338.704 191.772 338.928 191.772C339.303 191.772 339.646 191.866 339.957 192.053C340.268 192.239 340.517 192.495 340.705 192.824C340.892 193.15 340.986 193.523 340.986 193.945C340.986 194.35 340.896 194.721 340.714 195.058C340.533 195.392 340.279 195.658 339.951 195.857C339.625 196.053 339.241 196.148 338.8 196.144ZM338.8 195.441C339.069 195.441 339.309 195.374 339.522 195.24C339.738 195.105 339.907 194.925 340.031 194.7C340.156 194.474 340.219 194.222 340.219 193.945C340.219 193.675 340.158 193.429 340.037 193.207C339.918 192.983 339.752 192.805 339.542 192.673C339.333 192.541 339.094 192.475 338.826 192.475C338.623 192.475 338.435 192.516 338.26 192.597C338.085 192.675 337.932 192.784 337.8 192.923C337.67 193.061 337.567 193.22 337.493 193.399C337.418 193.576 337.381 193.762 337.381 193.958C337.381 194.218 337.442 194.461 337.563 194.687C337.687 194.913 337.855 195.095 338.068 195.233C338.283 195.372 338.527 195.441 338.8 195.441ZM342.498 196.106C342.34 196.106 342.205 196.049 342.092 195.936C341.979 195.824 341.923 195.688 341.923 195.531C341.923 195.373 341.979 195.238 342.092 195.125C342.205 195.012 342.34 194.955 342.498 194.955C342.656 194.955 342.791 195.012 342.904 195.125C343.017 195.238 343.073 195.373 343.073 195.531C343.073 195.635 343.047 195.731 342.993 195.818C342.942 195.906 342.873 195.976 342.786 196.029C342.7 196.08 342.604 196.106 342.498 196.106ZM344.414 196.055V195.479L346.574 193.114C346.828 192.837 347.037 192.597 347.201 192.392C347.365 192.185 347.486 191.991 347.565 191.81C347.646 191.627 347.687 191.435 347.687 191.235C347.687 191.005 347.631 190.806 347.52 190.637C347.412 190.469 347.263 190.339 347.073 190.248C346.883 190.156 346.67 190.11 346.434 190.11C346.182 190.11 345.963 190.162 345.775 190.267C345.59 190.369 345.446 190.513 345.344 190.698C345.244 190.884 345.194 191.101 345.194 191.35H344.439C344.439 190.967 344.528 190.63 344.705 190.34C344.882 190.05 345.122 189.825 345.427 189.663C345.734 189.501 346.078 189.42 346.459 189.42C346.843 189.42 347.183 189.501 347.479 189.663C347.775 189.825 348.007 190.043 348.176 190.318C348.344 190.593 348.428 190.898 348.428 191.235C348.428 191.476 348.384 191.711 348.297 191.941C348.212 192.169 348.063 192.424 347.85 192.705C347.639 192.984 347.346 193.325 346.971 193.728L345.501 195.3V195.352H348.543V196.055H344.414ZM351.909 196.144C351.534 196.144 351.196 196.07 350.895 195.92C350.595 195.771 350.354 195.567 350.173 195.307C349.992 195.047 349.893 194.751 349.876 194.418H350.643C350.673 194.714 350.807 194.96 351.046 195.153C351.286 195.345 351.574 195.441 351.909 195.441C352.177 195.441 352.416 195.378 352.624 195.252C352.835 195.127 353.001 194.954 353.12 194.735C353.241 194.513 353.302 194.263 353.302 193.984C353.302 193.698 353.239 193.444 353.113 193.22C352.99 192.994 352.819 192.816 352.602 192.686C352.385 192.556 352.137 192.49 351.857 192.488C351.657 192.486 351.452 192.517 351.241 192.581C351.03 192.642 350.856 192.722 350.72 192.82L349.978 192.731L350.374 189.509H353.775V190.212H351.039L350.809 192.143H350.847C350.982 192.036 351.15 191.948 351.352 191.877C351.555 191.807 351.766 191.772 351.985 191.772C352.386 191.772 352.743 191.868 353.056 192.06C353.371 192.249 353.618 192.509 353.797 192.839C353.979 193.17 354.069 193.547 354.069 193.971C354.069 194.388 353.975 194.761 353.788 195.089C353.602 195.415 353.347 195.673 353.021 195.863C352.695 196.05 352.324 196.144 351.909 196.144Z" fill="#575757"/>
<path d="M400.562 196.055L403.489 190.263V190.212H400.114V189.509H404.308V190.251L401.393 196.055H400.562ZM404.936 196.106C404.779 196.106 404.643 196.049 404.53 195.936C404.418 195.824 404.361 195.688 404.361 195.531C404.361 195.373 404.418 195.238 404.53 195.125C404.643 195.012 404.779 194.955 404.936 194.955C405.094 194.955 405.229 195.012 405.342 195.125C405.455 195.238 405.512 195.373 405.512 195.531C405.512 195.635 405.485 195.731 405.432 195.818C405.381 195.906 405.311 195.976 405.224 196.029C405.139 196.08 405.043 196.106 404.936 196.106ZM408.766 196.144C408.391 196.144 408.053 196.07 407.753 195.92C407.452 195.771 407.212 195.567 407.031 195.307C406.849 195.047 406.75 194.751 406.733 194.418H407.5C407.53 194.714 407.664 194.96 407.903 195.153C408.144 195.345 408.431 195.441 408.766 195.441C409.034 195.441 409.273 195.378 409.482 195.252C409.693 195.127 409.858 194.954 409.977 194.735C410.099 194.513 410.159 194.263 410.159 193.984C410.159 193.698 410.097 193.444 409.971 193.22C409.847 192.994 409.677 192.816 409.46 192.686C409.242 192.556 408.994 192.49 408.715 192.488C408.515 192.486 408.309 192.517 408.098 192.581C407.887 192.642 407.713 192.722 407.577 192.82L406.836 192.731L407.232 189.509H410.632V190.212H407.897L407.667 192.143H407.705C407.839 192.036 408.007 191.948 408.21 191.877C408.412 191.807 408.623 191.772 408.843 191.772C409.243 191.772 409.6 191.868 409.913 192.06C410.229 192.249 410.476 192.509 410.655 192.839C410.836 193.17 410.926 193.547 410.926 193.971C410.926 194.388 410.833 194.761 410.645 195.089C410.46 195.415 410.204 195.673 409.878 195.863C409.552 196.05 409.181 196.144 408.766 196.144Z" fill="#575757"/>
<path d="M465.403 196.144C464.964 196.144 464.576 196.066 464.24 195.911C463.905 195.753 463.644 195.537 463.457 195.262C463.269 194.985 463.176 194.67 463.179 194.316C463.176 194.039 463.231 193.783 463.342 193.549C463.452 193.312 463.604 193.115 463.795 192.958C463.989 192.798 464.206 192.697 464.444 192.654V192.616C464.131 192.535 463.882 192.359 463.696 192.088C463.511 191.816 463.419 191.506 463.422 191.158C463.419 190.826 463.504 190.529 463.674 190.267C463.844 190.005 464.079 189.798 464.377 189.647C464.678 189.495 465.02 189.42 465.403 189.42C465.782 189.42 466.121 189.495 466.419 189.647C466.718 189.798 466.952 190.005 467.123 190.267C467.295 190.529 467.382 190.826 467.385 191.158C467.382 191.506 467.288 191.816 467.1 192.088C466.915 192.359 466.669 192.535 466.362 192.616V192.654C466.598 192.697 466.811 192.798 467.001 192.958C467.191 193.115 467.342 193.312 467.455 193.549C467.568 193.783 467.625 194.039 467.627 194.316C467.625 194.67 467.529 194.985 467.34 195.262C467.152 195.537 466.891 195.753 466.557 195.911C466.224 196.066 465.84 196.144 465.403 196.144ZM465.403 195.441C465.699 195.441 465.955 195.393 466.17 195.297C466.385 195.201 466.551 195.066 466.669 194.891C466.786 194.717 466.846 194.512 466.848 194.278C466.846 194.031 466.782 193.812 466.656 193.623C466.53 193.433 466.359 193.284 466.141 193.175C465.926 193.066 465.68 193.012 465.403 193.012C465.124 193.012 464.875 193.066 464.655 193.175C464.438 193.284 464.266 193.433 464.141 193.623C464.017 193.812 463.956 194.031 463.958 194.278C463.956 194.512 464.013 194.717 464.128 194.891C464.245 195.066 464.412 195.201 464.63 195.297C464.847 195.393 465.105 195.441 465.403 195.441ZM465.403 192.335C465.637 192.335 465.845 192.288 466.026 192.194C466.21 192.1 466.353 191.969 466.458 191.801C466.562 191.632 466.615 191.435 466.618 191.21C466.615 190.988 466.563 190.795 466.461 190.631C466.359 190.465 466.217 190.337 466.036 190.248C465.855 190.156 465.644 190.11 465.403 190.11C465.158 190.11 464.944 190.156 464.761 190.248C464.577 190.337 464.436 190.465 464.336 190.631C464.235 190.795 464.186 190.988 464.189 191.21C464.186 191.435 464.237 191.632 464.339 191.801C464.443 191.969 464.587 192.1 464.77 192.194C464.953 192.288 465.164 192.335 465.403 192.335ZM469.213 196.106C469.055 196.106 468.92 196.049 468.807 195.936C468.694 195.824 468.637 195.688 468.637 195.531C468.637 195.373 468.694 195.238 468.807 195.125C468.92 195.012 469.055 194.955 469.213 194.955C469.37 194.955 469.506 195.012 469.619 195.125C469.732 195.238 469.788 195.373 469.788 195.531C469.788 195.635 469.761 195.731 469.708 195.818C469.657 195.906 469.588 195.976 469.5 196.029C469.415 196.08 469.319 196.106 469.213 196.106ZM471.201 196.055L474.129 190.263V190.212H470.754V189.509H474.947V190.251L472.032 196.055H471.201ZM478.096 196.144C477.721 196.144 477.383 196.07 477.083 195.92C476.782 195.771 476.542 195.567 476.361 195.307C476.18 195.047 476.08 194.751 476.063 194.418H476.83C476.86 194.714 476.994 194.96 477.233 195.153C477.474 195.345 477.762 195.441 478.096 195.441C478.365 195.441 478.603 195.378 478.812 195.252C479.023 195.127 479.188 194.954 479.307 194.735C479.429 194.513 479.49 194.263 479.49 193.984C479.49 193.698 479.427 193.444 479.301 193.22C479.177 192.994 479.007 192.816 478.79 192.686C478.572 192.556 478.324 192.49 478.045 192.488C477.845 192.486 477.639 192.517 477.428 192.581C477.217 192.642 477.044 192.722 476.907 192.82L476.166 192.731L476.562 189.509H479.963V190.212H477.227L476.997 192.143H477.035C477.169 192.036 477.338 191.948 477.54 191.877C477.742 191.807 477.953 191.772 478.173 191.772C478.573 191.772 478.93 191.868 479.243 192.06C479.559 192.249 479.806 192.509 479.985 192.839C480.166 193.17 480.257 193.547 480.257 193.971C480.257 194.388 480.163 194.761 479.975 195.089C479.79 195.415 479.534 195.673 479.208 195.863C478.882 196.05 478.512 196.144 478.096 196.144Z" fill="#575757"/>
<path d="M527.004 189.509V196.055H526.211V190.34H526.173L524.575 191.401V190.596L526.211 189.509H527.004ZM531.021 196.144C530.54 196.144 530.13 196.013 529.791 195.751C529.452 195.487 529.193 195.104 529.014 194.604C528.835 194.101 528.746 193.494 528.746 192.782C528.746 192.075 528.835 191.471 529.014 190.97C529.195 190.467 529.455 190.083 529.794 189.819C530.135 189.553 530.544 189.42 531.021 189.42C531.499 189.42 531.907 189.553 532.246 189.819C532.586 190.083 532.846 190.467 533.025 190.97C533.206 191.471 533.297 192.075 533.297 192.782C533.297 193.494 533.208 194.101 533.029 194.604C532.85 195.104 532.591 195.487 532.252 195.751C531.913 196.013 531.503 196.144 531.021 196.144ZM531.021 195.441C531.499 195.441 531.869 195.211 532.134 194.751C532.398 194.29 532.53 193.634 532.53 192.782C532.53 192.215 532.469 191.733 532.348 191.334C532.229 190.936 532.056 190.632 531.83 190.423C531.606 190.214 531.337 190.11 531.021 190.11C530.548 190.11 530.179 190.343 529.912 190.81C529.646 191.275 529.513 191.932 529.513 192.782C529.513 193.349 529.573 193.83 529.692 194.227C529.811 194.623 529.983 194.924 530.206 195.131C530.432 195.338 530.704 195.441 531.021 195.441Z" fill="#575757"/>
<path d="M4.90101 9.54048H5.84703L8.07147 14.9737H8.14817L10.3726 9.54048H11.3186V16.0859H10.5771V11.1129H10.5132L8.46777 16.0859H7.75186L5.70641 11.1129H5.64249V16.0859H4.90101V9.54048ZM14.7999 16.1882C14.3567 16.1882 13.9679 16.0827 13.6333 15.8718C13.301 15.6609 13.041 15.3658 12.8535 14.9865C12.6681 14.6072 12.5755 14.1641 12.5755 13.657C12.5755 13.1456 12.6681 12.6992 12.8535 12.3178C13.041 11.9364 13.301 11.6403 13.6333 11.4293C13.9679 11.2184 14.3567 11.1129 14.7999 11.1129C15.2431 11.1129 15.6309 11.2184 15.9632 11.4293C16.2978 11.6403 16.5577 11.9364 16.7431 12.3178C16.9306 12.6992 17.0243 13.1456 17.0243 13.657C17.0243 14.1641 16.9306 14.6072 16.7431 14.9865C16.5577 15.3658 16.2978 15.6609 15.9632 15.8718C15.6309 16.0827 15.2431 16.1882 14.7999 16.1882ZM14.7999 15.5107C15.1365 15.5107 15.4135 15.4244 15.6309 15.2518C15.8482 15.0792 16.0091 14.8523 16.1135 14.571C16.2179 14.2898 16.2701 13.9851 16.2701 13.657C16.2701 13.3288 16.2179 13.0231 16.1135 12.7397C16.0091 12.4563 15.8482 12.2273 15.6309 12.0526C15.4135 11.8778 15.1365 11.7905 14.7999 11.7905C14.4632 11.7905 14.1863 11.8778 13.9689 12.0526C13.7516 12.2273 13.5907 12.4563 13.4863 12.7397C13.3819 13.0231 13.3297 13.3288 13.3297 13.657C13.3297 13.9851 13.3819 14.2898 13.4863 14.571C13.5907 14.8523 13.7516 15.0792 13.9689 15.2518C14.1863 15.4244 14.4632 15.5107 14.7999 15.5107ZM18.93 13.1328V16.0859H18.1757V11.1768H18.9044V11.9439H18.9683C19.0834 11.6946 19.2581 11.4943 19.4925 11.343C19.7268 11.1896 20.0294 11.1129 20.4001 11.1129C20.7325 11.1129 21.0233 11.1811 21.2726 11.3175C21.5219 11.4517 21.7158 11.6562 21.8543 11.9311C21.9928 12.2038 22.0621 12.549 22.0621 12.9666V16.0859H21.3078V13.0178C21.3078 12.6321 21.2077 12.3317 21.0074 12.1165C20.8071 11.8991 20.5322 11.7905 20.1828 11.7905C19.942 11.7905 19.7268 11.8427 19.5372 11.9471C19.3497 12.0515 19.2016 12.2038 19.093 12.4041C18.9843 12.6044 18.93 12.8473 18.93 13.1328Z" fill="#575757"/>
<path d="M7.61044 38.2436V37.5405H12.5195V38.2436H10.4613V44.0859H9.66868V38.2436H7.61044ZM16.0663 42.0788V39.1768H16.8206V44.0859H16.0663V43.255H16.0152C15.9001 43.5043 15.7211 43.7163 15.4782 43.891C15.2354 44.0636 14.9285 44.1499 14.5578 44.1499C14.251 44.1499 13.9782 44.0827 13.7396 43.9485C13.501 43.8121 13.3135 43.6076 13.1771 43.3349C13.0407 43.06 12.9726 42.7138 12.9726 42.2962V39.1768H13.7268V42.245C13.7268 42.603 13.827 42.8885 14.0273 43.1016C14.2297 43.3146 14.4875 43.4212 14.8007 43.4212C14.9882 43.4212 15.1789 43.3732 15.3728 43.2773C15.5688 43.1815 15.7329 43.0344 15.865 42.8363C15.9992 42.6381 16.0663 42.3857 16.0663 42.0788ZM20.2603 44.1882C19.7873 44.1882 19.3793 44.0838 19.0362 43.875C18.6953 43.6641 18.4322 43.37 18.2468 42.9929C18.0636 42.6136 17.9719 42.1726 17.9719 41.6697C17.9719 41.1669 18.0636 40.7237 18.2468 40.3402C18.4322 39.9545 18.69 39.6541 19.0202 39.4389C19.3526 39.2216 19.7404 39.1129 20.1836 39.1129C20.4393 39.1129 20.6918 39.1555 20.9411 39.2408C21.1903 39.326 21.4173 39.4645 21.6218 39.6562C21.8263 39.8459 21.9893 40.0973 22.1108 40.4105C22.2322 40.7237 22.293 41.1094 22.293 41.5675V41.8871H18.5089V41.2351H21.5259C21.5259 40.9581 21.4705 40.7109 21.3597 40.4936C21.2511 40.2763 21.0955 40.1048 20.8931 39.979C20.6928 39.8533 20.4563 39.7905 20.1836 39.7905C19.8832 39.7905 19.6232 39.8651 19.4038 40.0142C19.1864 40.1612 19.0192 40.353 18.902 40.5895C18.7848 40.826 18.7262 41.0795 18.7262 41.3501V41.7848C18.7262 42.1555 18.7901 42.4698 18.918 42.7276C19.0479 42.9833 19.228 43.1783 19.4581 43.3125C19.6882 43.4446 19.9556 43.5107 20.2603 43.5107C20.4585 43.5107 20.6374 43.483 20.7972 43.4276C20.9592 43.37 21.0987 43.2848 21.2159 43.1719C21.3331 43.0568 21.4237 42.9141 21.4876 42.7436L22.2163 42.9482C22.1396 43.1953 22.0107 43.4126 21.8295 43.6001C21.6484 43.7855 21.4247 43.9304 21.1584 44.0348C20.892 44.1371 20.5927 44.1882 20.2603 44.1882Z" fill="#575757"/>
<path d="M5.81662 69.6758L4.02685 63.1303H4.83225L6.20015 68.4613H6.26407L7.65753 63.1303H8.55242L9.94588 68.4613H10.0098L11.3777 63.1303H12.1831L10.3933 69.6758H9.57515L8.13054 64.4599H8.07941L6.6348 69.6758H5.81662ZM14.6696 69.7781C14.1966 69.7781 13.7886 69.6737 13.4455 69.4648C13.1046 69.2539 12.8415 68.9599 12.6561 68.5827C12.4729 68.2035 12.3813 67.7624 12.3813 67.2596C12.3813 66.7567 12.4729 66.3136 12.6561 65.93C12.8415 65.5444 13.0993 65.244 13.4295 65.0288C13.7619 64.8114 14.1497 64.7028 14.5929 64.7028C14.8486 64.7028 15.1011 64.7454 15.3504 64.8306C15.5996 64.9158 15.8266 65.0543 16.0311 65.2461C16.2357 65.4357 16.3987 65.6871 16.5201 66.0004C16.6416 66.3136 16.7023 66.6992 16.7023 67.1573V67.4769H12.9182V66.8249H15.9352C15.9352 66.5479 15.8798 66.3008 15.769 66.0835C15.6604 65.8661 15.5048 65.6946 15.3024 65.5689C15.1021 65.4432 14.8656 65.3803 14.5929 65.3803C14.2925 65.3803 14.0325 65.4549 13.8131 65.604C13.5957 65.7511 13.4285 65.9428 13.3113 66.1793C13.1941 66.4158 13.1355 66.6694 13.1355 66.94V67.3746C13.1355 67.7454 13.1994 68.0597 13.3273 68.3175C13.4572 68.5732 13.6373 68.7681 13.8674 68.9023C14.0975 69.0344 14.3649 69.1005 14.6696 69.1005C14.8678 69.1005 15.0467 69.0728 15.2065 69.0174C15.3685 68.9599 15.508 68.8746 15.6252 68.7617C15.7424 68.6467 15.833 68.5039 15.8969 68.3335L16.6256 68.538C16.5489 68.7852 16.42 69.0025 16.2389 69.19C16.0577 69.3754 15.834 69.5202 15.5677 69.6246C15.3014 69.7269 15.002 69.7781 14.6696 69.7781ZM19.7033 69.7781C19.2943 69.7781 18.9331 69.6747 18.6199 69.468C18.3067 69.2592 18.0617 68.9652 17.8848 68.5859C17.708 68.2045 17.6195 67.7539 17.6195 67.234C17.6195 66.7184 17.708 66.271 17.8848 65.8917C18.0617 65.5124 18.3077 65.2195 18.6231 65.0128C18.9384 64.8061 19.3028 64.7028 19.7161 64.7028C20.0357 64.7028 20.2882 64.756 20.4736 64.8626C20.6611 64.967 20.8038 65.0863 20.9019 65.2205C21.002 65.3526 21.0798 65.4613 21.1352 65.5465H21.1991V63.1303H21.9533V69.6758H21.2246V68.9215H21.1352C21.0798 69.011 21.0009 69.1239 20.8987 69.2603C20.7964 69.3945 20.6504 69.5149 20.4608 69.6214C20.2712 69.7259 20.0187 69.7781 19.7033 69.7781ZM19.8056 69.1005C20.1082 69.1005 20.3639 69.0217 20.5727 68.864C20.7815 68.7042 20.9402 68.4837 21.0489 68.2024C21.1575 67.919 21.2119 67.592 21.2119 67.2212C21.2119 66.8548 21.1586 66.5341 21.0521 66.2592C20.9455 65.9822 20.7879 65.767 20.5791 65.6136C20.3702 65.4581 20.1124 65.3803 19.8056 65.3803C19.486 65.3803 19.2197 65.4624 19.0066 65.6264C18.7957 65.7884 18.6369 66.0089 18.5304 66.288C18.426 66.565 18.3738 66.8761 18.3738 67.2212C18.3738 67.5707 18.4271 67.8881 18.5336 68.1737C18.6423 68.457 18.8021 68.6829 19.013 68.8512C19.2261 69.0174 19.4903 69.1005 19.8056 69.1005Z" fill="#575757"/>
<path d="M6.86337 89.4233V88.7202H11.7725V89.4233H9.71422V95.2656H8.92161V89.4233H6.86337ZM13.6477 92.3125V95.2656H12.8935V88.7202H13.6477V91.1236H13.7116C13.8267 90.87 13.9993 90.6687 14.2294 90.5195C14.4616 90.3683 14.7706 90.2926 15.1562 90.2926C15.4908 90.2926 15.7837 90.3597 16.0352 90.494C16.2866 90.6261 16.4815 90.8295 16.62 91.1044C16.7607 91.3771 16.831 91.7244 16.831 92.1463V95.2656H16.0767V92.1974C16.0767 91.8075 15.9755 91.506 15.7731 91.293C15.5728 91.0778 15.2947 90.9702 14.9389 90.9702C14.6918 90.9702 14.4702 91.0224 14.2741 91.1268C14.0803 91.2312 13.9268 91.3835 13.8139 91.5838C13.7031 91.7841 13.6477 92.027 13.6477 92.3125ZM21.3046 93.2585V90.3565H22.0589V95.2656H21.3046V94.4347H21.2535C21.1384 94.6839 20.9594 94.896 20.7165 95.0707C20.4736 95.2433 20.1668 95.3295 19.7961 95.3295C19.4893 95.3295 19.2165 95.2624 18.9779 95.1282C18.7393 94.9918 18.5518 94.7873 18.4154 94.5146C18.279 94.2397 18.2108 93.8935 18.2108 93.4759V90.3565H18.9651V93.4247C18.9651 93.7827 19.0653 94.0682 19.2655 94.2812C19.468 94.4943 19.7258 94.6009 20.039 94.6009C20.2265 94.6009 20.4172 94.5529 20.6111 94.457C20.8071 94.3612 20.9711 94.2141 21.1032 94.016C21.2375 93.8178 21.3046 93.5653 21.3046 93.2585Z" fill="#575757"/>
<path d="M12.8287 120.855V114.31H16.7535V115.013H13.6214V117.225H16.4594V117.928H13.6214V120.855H12.8287ZM17.956 120.855V115.946H18.6847V116.688H18.7358C18.8253 116.445 18.9872 116.248 19.2216 116.097C19.456 115.945 19.7202 115.87 20.0142 115.87C20.0696 115.87 20.1388 115.871 20.2219 115.873C20.305 115.875 20.3679 115.878 20.4105 115.882V116.65C20.3849 116.643 20.3263 116.634 20.2347 116.621C20.1452 116.606 20.0504 116.598 19.9503 116.598C19.7116 116.598 19.4986 116.648 19.3111 116.749C19.1257 116.847 18.9787 116.983 18.87 117.158C18.7635 117.33 18.7102 117.527 18.7102 117.749V120.855H17.956ZM21.3046 120.855V115.946H22.0589V120.855H21.3046ZM21.6881 115.128C21.5411 115.128 21.4143 115.078 21.3078 114.978C21.2034 114.878 21.1512 114.757 21.1512 114.617C21.1512 114.476 21.2034 114.356 21.3078 114.256C21.4143 114.156 21.5411 114.105 21.6881 114.105C21.8351 114.105 21.9608 114.156 22.0653 114.256C22.1718 114.356 22.2251 114.476 22.2251 114.617C22.2251 114.757 22.1718 114.878 22.0653 114.978C21.9608 115.078 21.8351 115.128 21.6881 115.128Z" fill="#575757"/>
<path d="M13.0421 141.536C13.0037 141.212 12.8482 140.961 12.5755 140.782C12.3027 140.603 11.9682 140.513 11.5719 140.513C11.2821 140.513 11.0286 140.56 10.8113 140.654C10.5961 140.748 10.4277 140.877 10.3063 141.041C10.187 141.205 10.1273 141.391 10.1273 141.6C10.1273 141.775 10.1689 141.925 10.252 142.051C10.3372 142.174 10.4458 142.278 10.5779 142.361C10.71 142.442 10.8485 142.509 10.9934 142.562C11.1383 142.613 11.2715 142.655 11.3929 142.687L12.0577 142.866C12.2282 142.911 12.4178 142.972 12.6266 143.051C12.8375 143.13 13.0389 143.238 13.2306 143.374C13.4245 143.508 13.5843 143.681 13.7101 143.892C13.8358 144.103 13.8986 144.362 13.8986 144.668C13.8986 145.022 13.8059 145.342 13.6206 145.627C13.4373 145.913 13.1689 146.14 12.8152 146.308C12.4636 146.476 12.0364 146.56 11.5336 146.56C11.0648 146.56 10.6589 146.485 10.3159 146.333C9.97496 146.182 9.7065 145.971 9.51048 145.701C9.31658 145.43 9.20685 145.116 9.18129 144.758H9.99947C10.0208 145.005 10.1039 145.21 10.2488 145.371C10.3958 145.531 10.5811 145.651 10.8049 145.729C11.0307 145.806 11.2736 145.844 11.5336 145.844C11.8361 145.844 12.1078 145.795 12.3485 145.697C12.5893 145.597 12.78 145.459 12.9206 145.282C13.0613 145.103 13.1316 144.894 13.1316 144.656C13.1316 144.438 13.0708 144.261 12.9494 144.125C12.8279 143.989 12.6681 143.878 12.47 143.793C12.2718 143.707 12.0577 143.633 11.8276 143.569L11.0222 143.339C10.5108 143.192 10.106 142.982 9.80771 142.709C9.50941 142.436 9.36026 142.08 9.36026 141.638C9.36026 141.272 9.45934 140.952 9.65749 140.68C9.85778 140.405 10.1262 140.192 10.4629 140.04C10.8017 139.887 11.1799 139.81 11.5975 139.81C12.0194 139.81 12.3944 139.886 12.7225 140.037C13.0506 140.186 13.3105 140.391 13.5023 140.651C13.6962 140.911 13.7985 141.206 13.8091 141.536H13.0421ZM16.5441 146.56C16.233 146.56 15.9507 146.502 15.6972 146.385C15.4436 146.265 15.2423 146.094 15.0931 145.87C14.944 145.644 14.8694 145.371 14.8694 145.052C14.8694 144.771 14.9248 144.543 15.0356 144.368C15.1464 144.191 15.2945 144.053 15.4798 143.952C15.6652 143.852 15.8698 143.778 16.0935 143.729C16.3193 143.678 16.5463 143.637 16.7742 143.607C17.0725 143.569 17.3144 143.54 17.4997 143.521C17.6872 143.5 17.8236 143.464 17.9088 143.415C17.9962 143.366 18.0399 143.281 18.0399 143.16V143.134C18.0399 142.819 17.9536 142.574 17.781 142.399C17.6105 142.224 17.3517 142.137 17.0044 142.137C16.6443 142.137 16.3619 142.216 16.1574 142.374C15.9529 142.531 15.809 142.7 15.7259 142.879L15.01 142.623C15.1379 142.325 15.3083 142.092 15.5214 141.926C15.7366 141.758 15.971 141.641 16.2245 141.575C16.4802 141.506 16.7316 141.472 16.9788 141.472C17.1365 141.472 17.3176 141.491 17.5221 141.53C17.7288 141.566 17.928 141.642 18.1198 141.757C18.3137 141.872 18.4745 142.045 18.6024 142.278C18.7302 142.51 18.7941 142.821 18.7941 143.211V146.445H18.0399V145.781H18.0015C17.9504 145.887 17.8651 146.001 17.7458 146.123C17.6265 146.244 17.4678 146.347 17.2696 146.433C17.0715 146.518 16.8296 146.56 16.5441 146.56ZM16.6592 145.883C16.9575 145.883 17.2089 145.824 17.4134 145.707C17.6201 145.59 17.7757 145.439 17.8801 145.253C17.9866 145.068 18.0399 144.873 18.0399 144.668V143.978C18.0079 144.016 17.9376 144.051 17.8289 144.083C17.7224 144.113 17.5988 144.14 17.4582 144.163C17.3197 144.185 17.1844 144.204 17.0523 144.221C16.9223 144.236 16.8169 144.249 16.7359 144.259C16.5399 144.285 16.3566 144.326 16.1862 144.384C16.0178 144.439 15.8815 144.523 15.7771 144.636C15.6748 144.747 15.6237 144.898 15.6237 145.09C15.6237 145.352 15.7206 145.55 15.9145 145.685C16.1105 145.817 16.3588 145.883 16.6592 145.883ZM22.3058 141.536V142.175H19.7617V141.536H22.3058ZM20.5032 140.36H21.2575V145.039C21.2575 145.252 21.2884 145.412 21.3501 145.518C21.4141 145.623 21.495 145.693 21.593 145.729C21.6932 145.763 21.7987 145.781 21.9094 145.781C21.9925 145.781 22.0607 145.776 22.114 145.768C22.1673 145.757 22.2099 145.749 22.2418 145.742L22.3952 146.42C22.3441 146.439 22.2727 146.458 22.1811 146.477C22.0895 146.499 21.9734 146.509 21.8327 146.509C21.6197 146.509 21.4109 146.463 21.2063 146.372C21.0039 146.28 20.8356 146.141 20.7013 145.953C20.5692 145.766 20.5032 145.529 20.5032 145.244V140.36Z" fill="#575757"/>
<path d="M10.8888 167.126C10.8504 166.802 10.6949 166.551 10.4221 166.372C10.1494 166.193 9.8149 166.103 9.41859 166.103C9.12882 166.103 8.87527 166.15 8.65794 166.244C8.44274 166.338 8.27441 166.467 8.15297 166.631C8.03365 166.795 7.97399 166.981 7.97399 167.19C7.97399 167.365 8.01554 167.515 8.09863 167.641C8.18386 167.764 8.29252 167.868 8.42463 167.951C8.55673 168.032 8.69522 168.099 8.84011 168.152C8.985 168.203 9.11816 168.245 9.23961 168.277L9.90439 168.456C10.0748 168.5 10.2645 168.562 10.4733 168.641C10.6842 168.72 10.8856 168.827 11.0773 168.964C11.2712 169.098 11.431 169.271 11.5567 169.482C11.6824 169.692 11.7453 169.951 11.7453 170.258C11.7453 170.612 11.6526 170.931 11.4672 171.217C11.284 171.502 11.0155 171.729 10.6618 171.898C10.3103 172.066 9.88308 172.15 9.38024 172.15C8.91149 172.15 8.50559 172.075 8.16255 171.923C7.82164 171.772 7.55318 171.561 7.35716 171.29C7.16326 171.02 7.05353 170.706 7.02797 170.348H7.84615C7.86745 170.595 7.95055 170.799 8.09544 170.961C8.24245 171.121 8.42782 171.24 8.65154 171.319C8.8774 171.396 9.12029 171.434 9.38024 171.434C9.68279 171.434 9.95446 171.385 10.1952 171.287C10.436 171.187 10.6267 171.049 10.7673 170.872C10.9079 170.693 10.9782 170.484 10.9782 170.245C10.9782 170.028 10.9175 169.851 10.7961 169.715C10.6746 169.578 10.5148 169.468 10.3167 169.382C10.1185 169.297 9.90439 169.223 9.67427 169.159L8.86887 168.929C8.35751 168.782 7.95268 168.572 7.65439 168.299C7.35609 168.026 7.20694 167.669 7.20694 167.228C7.20694 166.862 7.30602 166.542 7.50417 166.27C7.70446 165.995 7.97292 165.782 8.30957 165.63C8.64835 165.477 9.02654 165.4 9.44416 165.4C9.86603 165.4 10.241 165.476 10.5692 165.627C10.8973 165.776 11.1572 165.981 11.349 166.241C11.5429 166.501 11.6452 166.796 11.6558 167.126H10.8888ZM16.04 170.028V167.126H16.7942V172.035H16.04V171.204H15.9888C15.8738 171.453 15.6948 171.665 15.4519 171.84C15.209 172.013 14.9022 172.099 14.5314 172.099C14.2246 172.099 13.9519 172.032 13.7132 171.898C13.4746 171.761 13.2871 171.557 13.1507 171.284C13.0144 171.009 12.9462 170.663 12.9462 170.245V167.126H13.7005V170.194C13.7005 170.552 13.8006 170.838 14.0009 171.051C14.2033 171.264 14.4611 171.37 14.7743 171.37C14.9618 171.37 15.1525 171.322 15.3464 171.227C15.5424 171.131 15.7065 170.984 15.8386 170.786C15.9728 170.587 16.04 170.335 16.04 170.028ZM18.93 169.082V172.035H18.1757V167.126H18.9044V167.893H18.9683C19.0834 167.644 19.2581 167.444 19.4925 167.292C19.7268 167.139 20.0294 167.062 20.4001 167.062C20.7325 167.062 21.0233 167.13 21.2726 167.267C21.5219 167.401 21.7158 167.605 21.8543 167.88C21.9928 168.153 22.0621 168.498 22.0621 168.916V172.035H21.3078V168.967C21.3078 168.581 21.2077 168.281 21.0074 168.066C20.8071 167.848 20.5322 167.74 20.1828 167.74C19.942 167.74 19.7268 167.792 19.5372 167.896C19.3497 168.001 19.2016 168.153 19.093 168.353C18.9843 168.554 18.93 168.797 18.93 169.082Z" fill="#575757"/>
</svg>
