<svg width="260" height="214" viewBox="0 0 260 214" fill="none" xmlns="http://www.w3.org/2000/svg">
<g clip-path="url(#clip0_232_36386)">
<path d="M164.322 194.549C141.354 203.654 115.856 203.248 93.1719 193.419C70.4878 183.589 52.3783 165.098 42.6391 141.821L130.11 103.001L164.322 194.549Z" fill="#B78AF7"/>
<path d="M43.371 143.526C33.2039 120.444 32.1063 94.2044 40.3083 70.3074C48.5103 46.4104 65.3751 26.7105 87.3683 15.3366L130.11 103L43.371 143.526Z" fill="#9654F4"/>
<path d="M224.077 86.9758C227.687 109.431 223.603 132.48 212.524 152.175C201.445 171.869 184.061 186.983 163.35 194.926L130.11 103L224.077 86.9758Z" fill="#290064"/>
<path d="M52.2863 46.4448C65.7206 26.8357 85.6686 12.9791 108.355 7.49735C131.041 2.01566 154.891 5.28927 175.392 16.6986C195.892 28.108 211.621 46.8615 219.6 69.4097C227.579 91.9579 227.255 116.736 218.69 139.055L130.111 102.999L52.2863 46.4448Z" fill="#CEB0FA"/>
<path d="M150.025 64.1634V63.294L153.86 57.2259H154.491V58.5724H154.065L151.167 63.1577V63.2259H156.332V64.1634H150.025ZM154.133 65.9531V63.8991V63.4943V57.2259H155.139V65.9531H154.133ZM157.929 65.9531V65.1861L160.809 62.0327C161.148 61.6634 161.426 61.3423 161.645 61.0696C161.863 60.794 162.025 60.5355 162.131 60.294C162.238 60.0497 162.292 59.794 162.292 59.527C162.292 59.2202 162.219 58.9545 162.071 58.7301C161.926 58.5057 161.727 58.3324 161.474 58.2102C161.221 58.0881 160.937 58.027 160.622 58.027C160.287 58.027 159.994 58.0966 159.744 58.2358C159.497 58.3722 159.305 58.5639 159.169 58.8111C159.035 59.0582 158.969 59.348 158.969 59.6804H157.963C157.963 59.169 158.081 58.7202 158.317 58.3338C158.552 57.9474 158.873 57.6463 159.28 57.4304C159.689 57.2145 160.148 57.1065 160.656 57.1065C161.167 57.1065 161.621 57.2145 162.015 57.4304C162.41 57.6463 162.72 57.9375 162.944 58.304C163.169 58.6705 163.281 59.0781 163.281 59.527C163.281 59.848 163.223 60.1619 163.106 60.4688C162.993 60.7727 162.794 61.1122 162.51 61.4872C162.229 61.8594 161.838 62.3139 161.338 62.8509L159.378 64.9474V65.0156H163.434V65.9531H157.929ZM169.643 64.3168V63.8565C169.643 63.5384 169.709 63.2472 169.839 62.983C169.973 62.7159 170.166 62.5028 170.419 62.3438C170.675 62.1818 170.984 62.1009 171.348 62.1009C171.717 62.1009 172.027 62.1818 172.277 62.3438C172.527 62.5028 172.716 62.7159 172.844 62.983C172.971 63.2472 173.035 63.5384 173.035 63.8565V64.3168C173.035 64.6349 172.97 64.9276 172.839 65.1946C172.711 65.4588 172.521 65.6719 172.268 65.8338C172.018 65.9929 171.711 66.0724 171.348 66.0724C170.979 66.0724 170.667 65.9929 170.415 65.8338C170.162 65.6719 169.97 65.4588 169.839 65.1946C169.709 64.9276 169.643 64.6349 169.643 64.3168ZM170.513 63.8565V64.3168C170.513 64.581 170.575 64.8182 170.7 65.0284C170.825 65.2358 171.041 65.3395 171.348 65.3395C171.646 65.3395 171.856 65.2358 171.979 65.0284C172.104 64.8182 172.166 64.581 172.166 64.3168V63.8565C172.166 63.5923 172.106 63.3565 171.987 63.1491C171.868 62.9389 171.655 62.8338 171.348 62.8338C171.05 62.8338 170.835 62.9389 170.704 63.1491C170.577 63.3565 170.513 63.5923 170.513 63.8565ZM165.297 59.3224V58.8622C165.297 58.544 165.362 58.2528 165.493 57.9886C165.626 57.7216 165.819 57.5085 166.072 57.3494C166.328 57.1875 166.638 57.1065 167.001 57.1065C167.371 57.1065 167.68 57.1875 167.93 57.3494C168.18 57.5085 168.369 57.7216 168.497 57.9886C168.625 58.2528 168.689 58.544 168.689 58.8622V59.3224C168.689 59.6406 168.623 59.9332 168.493 60.2003C168.365 60.4645 168.175 60.6776 167.922 60.8395C167.672 60.9986 167.365 61.0781 167.001 61.0781C166.632 61.0781 166.321 60.9986 166.068 60.8395C165.815 60.6776 165.623 60.4645 165.493 60.2003C165.362 59.9332 165.297 59.6406 165.297 59.3224ZM166.166 58.8622V59.3224C166.166 59.5866 166.229 59.8239 166.354 60.0341C166.479 60.2415 166.694 60.3452 167.001 60.3452C167.3 60.3452 167.51 60.2415 167.632 60.0341C167.757 59.8239 167.819 59.5866 167.819 59.3224V58.8622C167.819 58.598 167.76 58.3622 167.64 58.1548C167.521 57.9446 167.308 57.8395 167.001 57.8395C166.703 57.8395 166.488 57.9446 166.358 58.1548C166.23 58.3622 166.166 58.598 166.166 58.8622ZM165.621 65.9531L171.621 57.2259H172.592L166.592 65.9531H165.621Z" fill="white"/>
<path d="M164.159 141.552V150.279H163.102V142.66H163.051L160.92 144.075V143.001L163.102 141.552H164.159ZM166.669 150.279V149.512L169.55 146.359C169.888 145.99 170.166 145.669 170.385 145.396C170.604 145.12 170.766 144.862 170.871 144.62C170.979 144.376 171.033 144.12 171.033 143.853C171.033 143.546 170.959 143.281 170.811 143.056C170.666 142.832 170.467 142.659 170.214 142.536C169.962 142.414 169.678 142.353 169.362 142.353C169.027 142.353 168.734 142.423 168.484 142.562C168.237 142.698 168.045 142.89 167.909 143.137C167.776 143.384 167.709 143.674 167.709 144.007H166.703C166.703 143.495 166.821 143.046 167.057 142.66C167.293 142.274 167.614 141.972 168.02 141.757C168.429 141.541 168.888 141.433 169.396 141.433C169.908 141.433 170.361 141.541 170.756 141.757C171.151 141.972 171.46 142.264 171.685 142.63C171.909 142.997 172.021 143.404 172.021 143.853C172.021 144.174 171.963 144.488 171.847 144.795C171.733 145.099 171.534 145.438 171.25 145.813C170.969 146.186 170.578 146.64 170.078 147.177L168.118 149.274V149.342H172.175V150.279H166.669ZM178.384 148.643V148.183C178.384 147.865 178.449 147.573 178.58 147.309C178.713 147.042 178.906 146.829 179.159 146.67C179.415 146.508 179.724 146.427 180.088 146.427C180.457 146.427 180.767 146.508 181.017 146.67C181.267 146.829 181.456 147.042 181.584 147.309C181.712 147.573 181.776 147.865 181.776 148.183V148.643C181.776 148.961 181.71 149.254 181.58 149.521C181.452 149.785 181.261 149.998 181.009 150.16C180.759 150.319 180.452 150.399 180.088 150.399C179.719 150.399 179.408 150.319 179.155 150.16C178.902 149.998 178.71 149.785 178.58 149.521C178.449 149.254 178.384 148.961 178.384 148.643ZM179.253 148.183V148.643C179.253 148.907 179.315 149.144 179.44 149.355C179.565 149.562 179.781 149.666 180.088 149.666C180.386 149.666 180.597 149.562 180.719 149.355C180.844 149.144 180.906 148.907 180.906 148.643V148.183C180.906 147.919 180.847 147.683 180.727 147.475C180.608 147.265 180.395 147.16 180.088 147.16C179.79 147.16 179.575 147.265 179.445 147.475C179.317 147.683 179.253 147.919 179.253 148.183ZM174.037 143.649V143.188C174.037 142.87 174.102 142.579 174.233 142.315C174.366 142.048 174.56 141.835 174.812 141.676C175.068 141.514 175.378 141.433 175.741 141.433C176.111 141.433 176.42 141.514 176.67 141.676C176.92 141.835 177.109 142.048 177.237 142.315C177.365 142.579 177.429 142.87 177.429 143.188V143.649C177.429 143.967 177.364 144.259 177.233 144.526C177.105 144.791 176.915 145.004 176.662 145.166C176.412 145.325 176.105 145.404 175.741 145.404C175.372 145.404 175.061 145.325 174.808 145.166C174.555 145.004 174.364 144.791 174.233 144.526C174.102 144.259 174.037 143.967 174.037 143.649ZM174.906 143.188V143.649C174.906 143.913 174.969 144.15 175.094 144.36C175.219 144.568 175.435 144.671 175.741 144.671C176.04 144.671 176.25 144.568 176.372 144.36C176.497 144.15 176.56 143.913 176.56 143.649V143.188C176.56 142.924 176.5 142.688 176.381 142.481C176.261 142.271 176.048 142.166 175.741 142.166C175.443 142.166 175.229 142.271 175.098 142.481C174.97 142.688 174.906 142.924 174.906 143.188ZM174.361 150.279L180.361 141.552H181.332L175.332 150.279H174.361Z" fill="white"/>
<path d="M100.101 163.188V162.42L102.981 159.267C103.319 158.898 103.598 158.577 103.817 158.304C104.035 158.028 104.197 157.77 104.302 157.528C104.41 157.284 104.464 157.028 104.464 156.761C104.464 156.455 104.39 156.189 104.243 155.964C104.098 155.74 103.899 155.567 103.646 155.445C103.393 155.322 103.109 155.261 102.794 155.261C102.459 155.261 102.166 155.331 101.916 155.47C101.669 155.607 101.477 155.798 101.341 156.045C101.207 156.293 101.14 156.582 101.14 156.915H100.135C100.135 156.403 100.253 155.955 100.488 155.568C100.724 155.182 101.045 154.881 101.452 154.665C101.861 154.449 102.319 154.341 102.828 154.341C103.339 154.341 103.792 154.449 104.187 154.665C104.582 154.881 104.892 155.172 105.116 155.538C105.341 155.905 105.453 156.312 105.453 156.761C105.453 157.082 105.395 157.396 105.278 157.703C105.165 158.007 104.966 158.347 104.682 158.722C104.4 159.094 104.01 159.548 103.51 160.085L101.55 162.182V162.25H105.606V163.188H100.101ZM110.264 163.307C109.906 163.301 109.548 163.233 109.19 163.102C108.832 162.972 108.506 162.751 108.21 162.442C107.915 162.129 107.677 161.707 107.498 161.176C107.319 160.642 107.23 159.972 107.23 159.165C107.23 158.392 107.302 157.707 107.447 157.111C107.592 156.511 107.802 156.007 108.078 155.598C108.354 155.186 108.686 154.874 109.075 154.661C109.467 154.447 109.909 154.341 110.4 154.341C110.889 154.341 111.324 154.439 111.704 154.635C112.088 154.828 112.4 155.098 112.642 155.445C112.883 155.791 113.04 156.19 113.111 156.642H112.071C111.974 156.25 111.787 155.925 111.508 155.666C111.23 155.408 110.861 155.278 110.4 155.278C109.724 155.278 109.192 155.572 108.802 156.161C108.416 156.749 108.221 157.574 108.219 158.636H108.287C108.446 158.395 108.635 158.189 108.854 158.018C109.075 157.845 109.319 157.712 109.586 157.618C109.854 157.524 110.136 157.477 110.434 157.477C110.934 157.477 111.392 157.602 111.807 157.852C112.221 158.099 112.554 158.442 112.804 158.879C113.054 159.314 113.179 159.812 113.179 160.375C113.179 160.915 113.058 161.409 112.817 161.858C112.575 162.304 112.236 162.659 111.798 162.923C111.363 163.185 110.852 163.312 110.264 163.307ZM110.264 162.369C110.622 162.369 110.943 162.28 111.227 162.101C111.514 161.922 111.74 161.682 111.905 161.381C112.072 161.08 112.156 160.744 112.156 160.375C112.156 160.014 112.075 159.686 111.913 159.391C111.754 159.092 111.534 158.855 111.253 158.679C110.974 158.503 110.656 158.415 110.298 158.415C110.028 158.415 109.777 158.469 109.544 158.577C109.311 158.682 109.106 158.827 108.93 159.011C108.757 159.196 108.621 159.408 108.521 159.646C108.422 159.882 108.372 160.131 108.372 160.392C108.372 160.739 108.453 161.062 108.615 161.364C108.78 161.665 109.004 161.908 109.288 162.092C109.575 162.277 109.9 162.369 110.264 162.369ZM119.303 161.551V161.091C119.303 160.773 119.369 160.482 119.499 160.217C119.633 159.95 119.826 159.737 120.079 159.578C120.335 159.416 120.644 159.335 121.008 159.335C121.377 159.335 121.687 159.416 121.937 159.578C122.187 159.737 122.376 159.95 122.504 160.217C122.632 160.482 122.695 160.773 122.695 161.091V161.551C122.695 161.869 122.63 162.162 122.499 162.429C122.372 162.693 122.181 162.906 121.928 163.068C121.678 163.227 121.372 163.307 121.008 163.307C120.639 163.307 120.328 163.227 120.075 163.068C119.822 162.906 119.63 162.693 119.499 162.429C119.369 162.162 119.303 161.869 119.303 161.551ZM120.173 161.091V161.551C120.173 161.815 120.235 162.053 120.36 162.263C120.485 162.47 120.701 162.574 121.008 162.574C121.306 162.574 121.517 162.47 121.639 162.263C121.764 162.053 121.826 161.815 121.826 161.551V161.091C121.826 160.827 121.767 160.591 121.647 160.384C121.528 160.173 121.315 160.068 121.008 160.068C120.71 160.068 120.495 160.173 120.365 160.384C120.237 160.591 120.173 160.827 120.173 161.091ZM114.957 156.557V156.097C114.957 155.778 115.022 155.487 115.153 155.223C115.286 154.956 115.48 154.743 115.732 154.584C115.988 154.422 116.298 154.341 116.661 154.341C117.031 154.341 117.34 154.422 117.59 154.584C117.84 154.743 118.029 154.956 118.157 155.223C118.285 155.487 118.349 155.778 118.349 156.097V156.557C118.349 156.875 118.284 157.168 118.153 157.435C118.025 157.699 117.835 157.912 117.582 158.074C117.332 158.233 117.025 158.312 116.661 158.312C116.292 158.312 115.981 158.233 115.728 158.074C115.475 157.912 115.284 157.699 115.153 157.435C115.022 157.168 114.957 156.875 114.957 156.557ZM115.826 156.097V156.557C115.826 156.821 115.889 157.058 116.014 157.268C116.139 157.476 116.355 157.58 116.661 157.58C116.96 157.58 117.17 157.476 117.292 157.268C117.417 157.058 117.48 156.821 117.48 156.557V156.097C117.48 155.832 117.42 155.597 117.301 155.389C117.181 155.179 116.968 155.074 116.661 155.074C116.363 155.074 116.149 155.179 116.018 155.389C115.89 155.597 115.826 155.832 115.826 156.097ZM115.281 163.188L121.281 154.46H122.252L116.252 163.188H115.281Z" fill="white"/>
<path d="M60.8311 104.674V103.907L63.7118 100.753C64.0499 100.384 64.3283 100.063 64.5471 99.7903C64.7658 99.5147 64.9277 99.2562 65.0328 99.0147C65.1408 98.7704 65.1948 98.5147 65.1948 98.2477C65.1948 97.9409 65.1209 97.6752 64.9732 97.4508C64.8283 97.2264 64.6294 97.0531 64.3766 96.9309C64.1238 96.8088 63.8397 96.7477 63.5243 96.7477C63.1891 96.7477 62.8965 96.8173 62.6465 96.9565C62.3993 97.0929 62.2076 97.2846 62.0712 97.5318C61.9377 97.7789 61.8709 98.0687 61.8709 98.4011H60.8652C60.8652 97.8897 60.9831 97.4409 61.2189 97.0545C61.4547 96.6681 61.7757 96.367 62.182 96.1511C62.5911 95.9352 63.0499 95.8272 63.5584 95.8272C64.0698 95.8272 64.5229 95.9352 64.9178 96.1511C65.3127 96.367 65.6223 96.6582 65.8468 97.0247C66.0712 97.3912 66.1834 97.7988 66.1834 98.2477C66.1834 98.5687 66.1252 98.8826 66.0087 99.1895C65.8951 99.4934 65.6962 99.8329 65.4121 100.208C65.1309 100.58 64.7402 101.035 64.2402 101.572L62.28 103.668V103.736H66.3368V104.674H60.8311ZM70.9434 104.793C70.3013 104.793 69.7544 104.618 69.3027 104.269C68.851 103.917 68.5059 103.407 68.2672 102.739C68.0286 102.069 67.9093 101.259 67.9093 100.31C67.9093 99.367 68.0286 98.5616 68.2672 97.894C68.5087 97.2235 68.8553 96.7122 69.307 96.3599C69.7615 96.0048 70.307 95.8272 70.9434 95.8272C71.5797 95.8272 72.1238 96.0048 72.5755 96.3599C73.03 96.7122 73.3766 97.2235 73.6152 97.894C73.8567 98.5616 73.9775 99.367 73.9775 100.31C73.9775 101.259 73.8581 102.069 73.6195 102.739C73.3809 103.407 73.0357 103.917 72.584 104.269C72.1323 104.618 71.5854 104.793 70.9434 104.793ZM70.9434 103.856C71.5797 103.856 72.074 103.549 72.4263 102.935C72.7786 102.322 72.9547 101.447 72.9547 100.31C72.9547 99.5545 72.8738 98.911 72.7118 98.3798C72.5527 97.8485 72.3226 97.4437 72.0215 97.1653C71.7232 96.8869 71.3638 96.7477 70.9434 96.7477C70.3127 96.7477 69.8198 97.0588 69.4647 97.6809C69.1096 98.3002 68.932 99.1767 68.932 100.31C68.932 101.066 69.0115 101.708 69.1706 102.236C69.3297 102.765 69.5584 103.167 69.8567 103.442C70.1578 103.718 70.5201 103.856 70.9434 103.856ZM80.0456 103.037V102.577C80.0456 102.259 80.111 101.968 80.2417 101.704C80.3752 101.437 80.5684 101.224 80.8212 101.064C81.0769 100.903 81.3865 100.822 81.7502 100.822C82.1195 100.822 82.4292 100.903 82.6792 101.064C82.9292 101.224 83.1181 101.437 83.2459 101.704C83.3738 101.968 83.4377 102.259 83.4377 102.577V103.037C83.4377 103.356 83.3723 103.648 83.2417 103.915C83.1138 104.18 82.9235 104.393 82.6706 104.555C82.4206 104.714 82.1138 104.793 81.7502 104.793C81.3809 104.793 81.0698 104.714 80.8169 104.555C80.5641 104.393 80.3723 104.18 80.2417 103.915C80.111 103.648 80.0456 103.356 80.0456 103.037ZM80.915 102.577V103.037C80.915 103.302 80.9775 103.539 81.1025 103.749C81.2275 103.956 81.4434 104.06 81.7502 104.06C82.0485 104.06 82.2587 103.956 82.3809 103.749C82.5059 103.539 82.5684 103.302 82.5684 103.037V102.577C82.5684 102.313 82.5087 102.077 82.3894 101.87C82.2701 101.66 82.057 101.555 81.7502 101.555C81.4519 101.555 81.2374 101.66 81.1067 101.87C80.9789 102.077 80.915 102.313 80.915 102.577ZM75.699 98.0431V97.5829C75.699 97.2647 75.7644 96.9735 75.8951 96.7093C76.0286 96.4423 76.2218 96.2292 76.4746 96.0701C76.7303 95.9082 77.04 95.8272 77.4036 95.8272C77.7729 95.8272 78.0826 95.9082 78.3326 96.0701C78.5826 96.2292 78.7715 96.4423 78.8993 96.7093C79.0272 96.9735 79.0911 97.2647 79.0911 97.5829V98.0431C79.0911 98.3613 79.0257 98.6539 78.8951 98.921C78.7672 99.1852 78.5769 99.3983 78.324 99.5602C78.074 99.7193 77.7672 99.7988 77.4036 99.7988C77.0343 99.7988 76.7232 99.7193 76.4703 99.5602C76.2175 99.3983 76.0257 99.1852 75.8951 98.921C75.7644 98.6539 75.699 98.3613 75.699 98.0431ZM76.5684 97.5829V98.0431C76.5684 98.3074 76.6309 98.5446 76.7559 98.7548C76.8809 98.9622 77.0968 99.0659 77.4036 99.0659C77.7019 99.0659 77.9121 98.9622 78.0343 98.7548C78.1593 98.5446 78.2218 98.3074 78.2218 98.0431V97.5829C78.2218 97.3187 78.1621 97.0829 78.0428 96.8755C77.9235 96.6653 77.7104 96.5602 77.4036 96.5602C77.1053 96.5602 76.8908 96.6653 76.7601 96.8755C76.6323 97.0829 76.5684 97.3187 76.5684 97.5829ZM76.0229 104.674L82.0229 95.9466H82.9945L76.9945 104.674H76.0229Z" fill="white"/>
</g>
<defs>
<clipPath id="clip0_232_36386">
<rect width="260" height="221" fill="white"/>
</clipPath>
</defs>
</svg>
