<svg width="16" height="19" viewBox="0 0 16 19" fill="none" xmlns="http://www.w3.org/2000/svg">
<path d="M6.33333 16.4993H9.66667C9.66667 17.416 8.91667 18.166 8 18.166C7.08333 18.166 6.33333 17.416 6.33333 16.4993ZM15.5 14.8327V15.666H0.5V14.8327L2.16667 13.166V8.16602C2.16667 5.58268 3.83333 3.33268 6.33333 2.58268V2.33268C6.33333 1.41602 7.08333 0.666016 8 0.666016C8.91667 0.666016 9.66667 1.41602 9.66667 2.33268V2.58268C12.1667 3.33268 13.8333 5.58268 13.8333 8.16602V13.166L15.5 14.8327ZM12.1667 8.16602C12.1667 5.83268 10.3333 3.99935 8 3.99935C5.66667 3.99935 3.83333 5.83268 3.83333 8.16602V13.9993H12.1667V8.16602Z" fill="#8133F1"/>
</svg>
