<svg width="24" height="24" viewBox="0 0 24 24" fill="none" xmlns="http://www.w3.org/2000/svg">
<path d="M6.5 19.9996C4.98 19.9996 3.68333 19.4763 2.61 18.4296C1.53667 17.3763 1 16.0929 1 14.5796C1 13.2796 1.39 12.1196 2.17 11.0996C2.95667 10.0796 3.98333 9.42961 5.25 9.14961C5.53667 7.94961 6.24667 6.80961 7.38 5.72961C8.50667 4.64294 9.71333 4.09961 11 4.09961C11.5533 4.09961 12.0233 4.29628 12.41 4.68961C12.8033 5.08294 13 5.55294 13 6.09961V12.1496L14.6 10.5996L16 11.9996L12 15.9996L8 11.9996L9.4 10.5996L11 12.1496V6.09961C9.73333 6.33294 8.75 6.94628 8.05 7.93961C7.35 8.93294 7 9.95294 7 10.9996H6.5C5.53333 10.9996 4.71 11.3429 4.03 12.0296C3.34333 12.7096 3 13.5329 3 14.4996C3 15.4663 3.34333 16.2996 4.03 16.9996C4.71 17.6663 5.53333 17.9996 6.5 17.9996H18.5C19.2 17.9996 19.79 17.7563 20.27 17.2696C20.7567 16.7896 21 16.1996 21 15.4996C21 14.7996 20.7567 14.2096 20.27 13.7296C19.79 13.2429 19.2 12.9996 18.5 12.9996H17V10.9996C17 10.1996 16.8167 9.45294 16.45 8.75961C16.0833 8.07294 15.6 7.48628 15 6.99961V4.67961C16.2333 5.25961 17.21 6.11961 17.93 7.25961C18.6433 8.41961 19 9.66628 19 10.9996C20.1533 11.1329 21.1067 11.6329 21.86 12.4996C22.62 13.3529 23 14.3529 23 15.4996C23 16.7529 22.5633 17.8163 21.69 18.6896C20.8167 19.5629 19.7533 19.9996 18.5 19.9996" fill="#8133F1"/>
</svg>
