<svg width="25" height="24" viewBox="0 0 25 24" fill="none" xmlns="http://www.w3.org/2000/svg">
<path d="M4.5 6L8.5 10V7H16.5C17.0304 7 17.5391 7.21071 17.9142 7.58579C18.2893 7.96086 18.5 8.46957 18.5 9C18.5 9.53043 18.2893 10.0391 17.9142 10.4142C17.5391 10.7893 17.0304 11 16.5 11H8.5C7.43913 11 6.42172 11.4214 5.67157 12.1716C4.92143 12.9217 4.5 13.9391 4.5 15C4.5 16.0609 4.92143 17.0783 5.67157 17.8284C6.42172 18.5786 7.43913 19 8.5 19H16.5V22L20.5 18L16.5 14V17H8.5C7.96957 17 7.46086 16.7893 7.08579 16.4142C6.71071 16.0391 6.5 15.5304 6.5 15C6.5 14.4696 6.71071 13.9609 7.08579 13.5858C7.46086 13.2107 7.96957 13 8.5 13H16.5C17.5609 13 18.5783 12.5786 19.3284 11.8284C20.0786 11.0783 20.5 10.0609 20.5 9C20.5 7.93913 20.0786 6.92172 19.3284 6.17157C18.5783 5.42143 17.5609 5 16.5 5H8.5V2L4.5 6Z" fill="#8133F1"/>
</svg>
