<svg width="25" height="24" viewBox="0 0 25 24" fill="none" xmlns="http://www.w3.org/2000/svg">
<path d="M23.5 14.5C23.5 12.94 22.47 11.63 21.05 11.18C21.33 10.68 21.5 10.11 21.5 9.5C21.5 7.94 20.47 6.63 19.05 6.18C19.33 5.68 19.5 5.11 19.5 4.5C19.5 2.57 17.93 1 16 1H9C7.07 1 5.5 2.57 5.5 4.5C5.5 5.11 5.67 5.68 5.95 6.18C4.54 6.63 3.5 7.94 3.5 9.5C3.5 10.11 3.67 10.68 3.95 11.18C2.54 11.63 1.5 12.94 1.5 14.5C1.5 15.76 2.17 16.84 3.17 17.46C2.75 18.03 2.5 18.74 2.5 19.5C2.5 21.43 4.07 23 6 23H19C20.93 23 22.5 21.43 22.5 19.5C22.5 18.74 22.25 18.03 21.83 17.46C22.83 16.84 23.5 15.76 23.5 14.5ZM9 3H16C16.83 3 17.5 3.67 17.5 4.5C17.5 5.33 16.83 6 16 6H9C8.17 6 7.5 5.33 7.5 4.5C7.5 3.67 8.17 3 9 3ZM7 8H18C18.83 8 19.5 8.67 19.5 9.5C19.5 10.33 18.83 11 18 11H7C6.17 11 5.5 10.33 5.5 9.5C5.5 8.67 6.17 8 7 8ZM4.5 19.5C4.5 18.67 5.17 18 6 18H9.5V21H6C5.17 21 4.5 20.33 4.5 19.5ZM19 21H15.5V18H19C19.83 18 20.5 18.67 20.5 19.5C20.5 20.33 19.83 21 19 21ZM20 16H15.32C14.9 14.84 13.8 14 12.5 14C11.2 14 10.1 14.84 9.68 16H5C4.17 16 3.5 15.33 3.5 14.5C3.5 13.67 4.17 13 5 13H20C20.83 13 21.5 13.67 21.5 14.5C21.5 15.33 20.83 16 20 16Z" fill="#8133F1"/>
</svg>
