<svg width="40" height="40" viewBox="0 0 116 116" fill="none" xmlns="http://www.w3.org/2000/svg">
<path d="M74.9167 67.6667L99.0833 91.8333L91.8333 99.0833L67.6667 74.9167V71.0983L66.3617 69.745C60.8517 74.4817 53.6983 77.3333 45.9167 77.3333C37.5844 77.3333 29.5935 74.0234 23.7017 68.1316C17.81 62.2398 14.5 54.2489 14.5 45.9167C14.5 37.5844 17.81 29.5935 23.7017 23.7017C29.5935 17.81 37.5844 14.5 45.9167 14.5C54.2489 14.5 62.2398 17.81 68.1316 23.7017C74.0234 29.5935 77.3333 37.5844 77.3333 45.9167C77.3333 53.6983 74.4817 60.8517 69.745 66.3617L71.0983 67.6667H74.9167ZM45.9167 67.6667C58 67.6667 67.6667 58 67.6667 45.9167C67.6667 33.8333 58 24.1667 45.9167 24.1667C33.8333 24.1667 24.1667 33.8333 24.1667 45.9167C24.1667 58 33.8333 67.6667 45.9167 67.6667ZM58 48.3333H48.3333V58H43.5V48.3333H33.8333V43.5H43.5V33.8333H48.3333V43.5H58V48.3333Z" fill="#8133F1"/>
</svg>
