<svg width="19" height="20" viewBox="0 0 19 20" fill="none" xmlns="http://www.w3.org/2000/svg">
<path d="M15 9.03V7H17V9.18C16.5 9.07 16 9 15.5 9C15.33 9 15.17 9 15 9.03ZM6.5 8C6.22 8 6 8.22 6 8.5V10H12V8.5C12 8.22 11.78 8 11.5 8H6.5ZM3 16V7H1V18H9.5C9.24 17.38 9.09 16.7 9.03 16H3ZM18 6H0V0H18V6ZM16 2H2V4H16V2ZM19 15.5V11.5L17.83 12.67C17.11 11.95 16.11 11.5 15 11.5C12.79 11.5 11 13.29 11 15.5C11 17.71 12.79 19.5 15 19.5C16.68 19.5 18.12 18.47 18.71 17H17C16.54 17.61 15.82 18 15 18C13.62 18 12.5 16.88 12.5 15.5C12.5 14.12 13.62 13 15 13C15.69 13 16.32 13.28 16.77 13.73L15 15.5H19Z" fill="#8133F1"/>
</svg>
