<svg width="556" height="177" viewBox="0 0 556 177" fill="none" xmlns="http://www.w3.org/2000/svg">
<rect x="22.4414" y="0.5" width="528.059" height="140" stroke="#BCBBBB" stroke-dasharray="1 1"/>
<path d="M21.9414 29.4102H551" stroke="#BCBBBB" stroke-dasharray="2 2"/>
<path d="M21.9414 57.0918H551" stroke="#BCBBBB" stroke-dasharray="2 2"/>
<path d="M21.9414 85.6387H551" stroke="#BCBBBB" stroke-dasharray="2 2"/>
<path d="M21.9414 114.184H551" stroke="#BCBBBB" stroke-dasharray="2 2"/>
<path d="M155.443 0L155.443 141" stroke="#BCBBBB" stroke-dasharray="2 2"/>
<path d="M285.646 0L285.646 141" stroke="#BCBBBB" stroke-dasharray="2 2"/>
<path d="M419.148 0L419.148 141" stroke="#BCBBBB" stroke-dasharray="2 2"/>
<path d="M23.6129 168.455H24.5589L26.7834 173.888H26.8601L29.0845 168.455H30.0305V175H29.2891V170.027H29.2251L27.1797 175H26.4638L24.4183 170.027H24.3544V175H23.6129V168.455ZM33.5118 175.102C33.0686 175.102 32.6798 174.997 32.3453 174.786C32.0129 174.575 31.7529 174.28 31.5654 173.901C31.3801 173.521 31.2874 173.078 31.2874 172.571C31.2874 172.06 31.3801 171.613 31.5654 171.232C31.7529 170.85 32.0129 170.554 32.3453 170.343C32.6798 170.132 33.0686 170.027 33.5118 170.027C33.955 170.027 34.3428 170.132 34.6752 170.343C35.0097 170.554 35.2696 170.85 35.455 171.232C35.6425 171.613 35.7362 172.06 35.7362 172.571C35.7362 173.078 35.6425 173.521 35.455 173.901C35.2696 174.28 35.0097 174.575 34.6752 174.786C34.3428 174.997 33.955 175.102 33.5118 175.102ZM33.5118 174.425C33.8485 174.425 34.1254 174.338 34.3428 174.166C34.5601 173.993 34.721 173.766 34.8254 173.485C34.9298 173.204 34.982 172.899 34.982 172.571C34.982 172.243 34.9298 171.937 34.8254 171.654C34.721 171.37 34.5601 171.141 34.3428 170.967C34.1254 170.792 33.8485 170.705 33.5118 170.705C33.1752 170.705 32.8982 170.792 32.6808 170.967C32.4635 171.141 32.3026 171.37 32.1982 171.654C32.0938 171.937 32.0416 172.243 32.0416 172.571C32.0416 172.899 32.0938 173.204 32.1982 173.485C32.3026 173.766 32.4635 173.993 32.6808 174.166C32.8982 174.338 33.1752 174.425 33.5118 174.425ZM37.6419 172.047V175H36.8876V170.091H37.6163V170.858H37.6802C37.7953 170.609 37.97 170.408 38.2044 170.257C38.4387 170.104 38.7413 170.027 39.112 170.027C39.4444 170.027 39.7353 170.095 39.9846 170.232C40.2338 170.366 40.4277 170.57 40.5662 170.845C40.7047 171.118 40.774 171.463 40.774 171.881V175H40.0197V171.932C40.0197 171.546 39.9196 171.246 39.7193 171.031C39.519 170.813 39.2441 170.705 38.8947 170.705C38.6539 170.705 38.4387 170.757 38.2491 170.861C38.0616 170.966 37.9135 171.118 37.8049 171.318C37.6962 171.518 37.6419 171.761 37.6419 172.047ZM44.0059 175.102C43.5969 175.102 43.2357 174.999 42.9225 174.792C42.6093 174.583 42.3643 174.289 42.1874 173.91C42.0106 173.529 41.9221 173.078 41.9221 172.558C41.9221 172.043 42.0106 171.595 42.1874 171.216C42.3643 170.837 42.6104 170.544 42.9257 170.337C43.241 170.13 43.6054 170.027 44.0187 170.027C44.3383 170.027 44.5908 170.08 44.7762 170.187C44.9637 170.291 45.1064 170.411 45.2045 170.545C45.3046 170.677 45.3824 170.786 45.4378 170.871H45.5017V168.455H46.2559V175H45.5273V174.246H45.4378C45.3824 174.335 45.3035 174.448 45.2013 174.585C45.099 174.719 44.953 174.839 44.7634 174.946C44.5738 175.05 44.3213 175.102 44.0059 175.102ZM44.1082 174.425C44.4108 174.425 44.6665 174.346 44.8753 174.188C45.0841 174.028 45.2428 173.808 45.3515 173.527C45.4601 173.243 45.5145 172.916 45.5145 172.545C45.5145 172.179 45.4612 171.858 45.3547 171.583C45.2481 171.306 45.0905 171.091 44.8817 170.938C44.6729 170.782 44.415 170.705 44.1082 170.705C43.7886 170.705 43.5223 170.787 43.3092 170.951C43.0983 171.113 42.9395 171.333 42.833 171.612C42.7286 171.889 42.6764 172.2 42.6764 172.545C42.6764 172.895 42.7297 173.212 42.8362 173.498C42.9449 173.781 43.1047 174.007 43.3156 174.175C43.5287 174.342 43.7929 174.425 44.1082 174.425ZM49.1867 175.115C48.8756 175.115 48.5933 175.056 48.3398 174.939C48.0862 174.82 47.8849 174.648 47.7357 174.425C47.5866 174.199 47.512 173.926 47.512 173.607C47.512 173.325 47.5674 173.097 47.6782 172.923C47.789 172.746 47.9371 172.607 48.1224 172.507C48.3078 172.407 48.5123 172.332 48.7361 172.283C48.9619 172.232 49.1888 172.192 49.4168 172.162C49.7151 172.124 49.9569 172.095 50.1423 172.076C50.3298 172.054 50.4662 172.019 50.5514 171.97C50.6388 171.921 50.6824 171.836 50.6824 171.714V171.689C50.6824 171.374 50.5961 171.129 50.4236 170.954C50.2531 170.779 49.9942 170.692 49.6469 170.692C49.2868 170.692 49.0045 170.771 48.8 170.928C48.5954 171.086 48.4516 171.254 48.3685 171.433L47.6526 171.178C47.7805 170.879 47.9509 170.647 48.164 170.481C48.3792 170.312 48.6135 170.195 48.8671 170.129C49.1228 170.061 49.3742 170.027 49.6214 170.027C49.779 170.027 49.9601 170.046 50.1647 170.085C50.3714 170.121 50.5706 170.196 50.7623 170.311C50.9562 170.426 51.1171 170.6 51.2449 170.832C51.3728 171.065 51.4367 171.376 51.4367 171.766V175H50.6824V174.335H50.6441C50.593 174.442 50.5077 174.556 50.3884 174.677C50.2691 174.799 50.1104 174.902 49.9122 174.987C49.714 175.072 49.4722 175.115 49.1867 175.115ZM49.3018 174.438C49.6001 174.438 49.8515 174.379 50.056 174.262C50.2627 174.145 50.4182 173.993 50.5226 173.808C50.6292 173.623 50.6824 173.428 50.6824 173.223V172.533C50.6505 172.571 50.5802 172.606 50.4715 172.638C50.365 172.668 50.2414 172.695 50.1008 172.718C49.9623 172.739 49.827 172.759 49.6949 172.776C49.5649 172.79 49.4594 172.803 49.3785 172.814C49.1824 172.839 48.9992 172.881 48.8287 172.939C48.6604 172.994 48.5241 173.078 48.4197 173.191C48.3174 173.302 48.2662 173.453 48.2662 173.645C48.2662 173.907 48.3632 174.105 48.5571 174.239C48.7531 174.371 49.0013 174.438 49.3018 174.438ZM53.1234 176.841C52.9956 176.841 52.8816 176.83 52.7814 176.809C52.6813 176.79 52.612 176.771 52.5737 176.751L52.7654 176.087C52.9487 176.134 53.1106 176.151 53.2512 176.138C53.3919 176.125 53.5165 176.062 53.6252 175.949C53.736 175.838 53.8372 175.658 53.9288 175.409L54.0694 175.026L52.2541 170.091H53.0723L54.4274 174.003H54.4785L55.8336 170.091H56.6518L54.568 175.716C54.4743 175.969 54.3581 176.179 54.2196 176.346C54.0811 176.514 53.9203 176.638 53.737 176.719C53.5559 176.8 53.3514 176.841 53.1234 176.841Z" fill="#4F4F4F"/>
<path d="M13.3897 144.605C12.9081 144.605 12.498 144.474 12.1592 144.212C11.8204 143.948 11.5616 143.565 11.3826 143.065C11.2036 142.562 11.1141 141.955 11.1141 141.243C11.1141 140.536 11.2036 139.931 11.3826 139.431C11.5637 138.928 11.8236 138.544 12.1624 138.28C12.5033 138.014 12.9124 137.881 13.3897 137.881C13.867 137.881 14.275 138.014 14.6138 138.28C14.9547 138.544 15.2146 138.928 15.3936 139.431C15.5747 139.931 15.6653 140.536 15.6653 141.243C15.6653 141.955 15.5758 142.562 15.3968 143.065C15.2178 143.565 14.9589 143.948 14.6202 144.212C14.2814 144.474 13.8712 144.605 13.3897 144.605ZM13.3897 143.902C13.867 143.902 14.2377 143.672 14.5019 143.212C14.7661 142.751 14.8982 142.095 14.8982 141.243C14.8982 140.676 14.8375 140.194 14.716 139.795C14.5967 139.397 14.4241 139.093 14.1983 138.884C13.9746 138.675 13.705 138.571 13.3897 138.571C12.9167 138.571 12.547 138.804 12.2807 139.271C12.0143 139.735 11.8812 140.393 11.8812 141.243C11.8812 141.81 11.9408 142.291 12.0601 142.688C12.1795 143.084 12.351 143.385 12.5747 143.592C12.8006 143.799 13.0722 143.902 13.3897 143.902Z" fill="#4F4F4F"/>
<path d="M8.97835 26.4545V33H8.18574V27.2855H8.14739L6.54938 28.3466V27.5412L8.18574 26.4545H8.97835ZM12.9958 33.0895C12.5142 33.0895 12.1041 32.9585 11.7653 32.6964C11.4265 32.4322 11.1676 32.0497 10.9887 31.549C10.8097 31.0462 10.7202 30.4389 10.7202 29.7273C10.7202 29.0199 10.8097 28.4158 10.9887 27.9151C11.1698 27.4123 11.4297 27.0288 11.7685 26.7646C12.1094 26.4982 12.5185 26.3651 12.9958 26.3651C13.473 26.3651 13.8811 26.4982 14.2198 26.7646C14.5607 27.0288 14.8207 27.4123 14.9997 27.9151C15.1808 28.4158 15.2713 29.0199 15.2713 29.7273C15.2713 30.4389 15.1818 31.0462 15.0029 31.549C14.8239 32.0497 14.565 32.4322 14.2262 32.6964C13.8874 32.9585 13.4773 33.0895 12.9958 33.0895ZM12.9958 32.3864C13.473 32.3864 13.8438 32.1562 14.108 31.696C14.3722 31.2358 14.5043 30.5795 14.5043 29.7273C14.5043 29.1605 14.4436 28.6779 14.3221 28.2795C14.2028 27.881 14.0302 27.5774 13.8043 27.3686C13.5806 27.1598 13.3111 27.0554 12.9958 27.0554C12.5227 27.0554 12.1531 27.2887 11.8867 27.7553C11.6204 28.2198 11.4872 28.8771 11.4872 29.7273C11.4872 30.294 11.5469 30.7756 11.6662 31.1719C11.7855 31.5682 11.957 31.8697 12.1808 32.0763C12.4066 32.283 12.6783 32.3864 12.9958 32.3864Z" fill="#4F4F4F"/>
<path d="M13.0567 90.0895C12.6817 90.0895 12.344 90.0149 12.0436 89.8658C11.7431 89.7166 11.5024 89.5121 11.3213 89.2521C11.1401 88.9922 11.0411 88.696 11.024 88.3636H11.7911C11.8209 88.6598 11.9551 88.9048 12.1938 89.0987C12.4345 89.2905 12.7222 89.3864 13.0567 89.3864C13.3252 89.3864 13.5638 89.3235 13.7726 89.1978C13.9835 89.0721 14.1487 88.8995 14.268 88.68C14.3894 88.4585 14.4502 88.2081 14.4502 87.929C14.4502 87.6435 14.3873 87.3888 14.2616 87.1651C14.138 86.9393 13.9676 86.7614 13.7502 86.6314C13.5329 86.5014 13.2847 86.4354 13.0056 86.4332C12.8053 86.4311 12.5997 86.462 12.3887 86.5259C12.1778 86.5877 12.0041 86.6676 11.8678 86.7656L11.1263 86.6761L11.5226 83.4545H14.9232V84.1577H12.1874L11.9573 86.0881H11.9956C12.1299 85.9815 12.2982 85.8931 12.5006 85.8228C12.703 85.7525 12.9139 85.7173 13.1334 85.7173C13.534 85.7173 13.8909 85.8132 14.2041 86.005C14.5194 86.1946 14.7666 86.4545 14.9455 86.7848C15.1267 87.1151 15.2172 87.4922 15.2172 87.9162C15.2172 88.3338 15.1235 88.7067 14.936 89.0348C14.7506 89.3608 14.4949 89.6186 14.1689 89.8082C13.8429 89.9957 13.4722 90.0895 13.0567 90.0895Z" fill="#4F4F4F"/>
<path d="M147.349 169.158V168.455H152.258V169.158H150.2V175H149.407V169.158H147.349ZM155.805 172.993V170.091H156.559V175H155.805V174.169H155.753C155.638 174.418 155.459 174.63 155.217 174.805C154.974 174.978 154.667 175.064 154.296 175.064C153.989 175.064 153.717 174.997 153.478 174.863C153.239 174.726 153.052 174.522 152.915 174.249C152.779 173.974 152.711 173.628 152.711 173.21V170.091H153.465V173.159C153.465 173.517 153.565 173.803 153.766 174.016C153.968 174.229 154.226 174.335 154.539 174.335C154.726 174.335 154.917 174.287 155.111 174.191C155.307 174.096 155.471 173.949 155.603 173.75C155.737 173.552 155.805 173.3 155.805 172.993ZM159.999 175.102C159.526 175.102 159.118 174.998 158.775 174.789C158.434 174.578 158.17 174.284 157.985 173.907C157.802 173.528 157.71 173.087 157.71 172.584C157.71 172.081 157.802 171.638 157.985 171.254C158.17 170.869 158.428 170.568 158.759 170.353C159.091 170.136 159.479 170.027 159.922 170.027C160.178 170.027 160.43 170.07 160.679 170.155C160.929 170.24 161.156 170.379 161.36 170.57C161.565 170.76 161.728 171.011 161.849 171.325C161.971 171.638 162.031 172.023 162.031 172.482V172.801H158.247V172.149H161.264C161.264 171.872 161.209 171.625 161.098 171.408C160.989 171.19 160.834 171.019 160.631 170.893C160.431 170.767 160.195 170.705 159.922 170.705C159.621 170.705 159.362 170.779 159.142 170.928C158.925 171.075 158.757 171.267 158.64 171.504C158.523 171.74 158.464 171.994 158.464 172.264V172.699C158.464 173.07 158.528 173.384 158.656 173.642C158.786 173.897 158.966 174.092 159.196 174.227C159.426 174.359 159.694 174.425 159.999 174.425C160.197 174.425 160.376 174.397 160.536 174.342C160.697 174.284 160.837 174.199 160.954 174.086C161.071 173.971 161.162 173.828 161.226 173.658L161.955 173.862C161.878 174.109 161.749 174.327 161.568 174.514C161.387 174.7 161.163 174.844 160.897 174.949C160.63 175.051 160.331 175.102 159.999 175.102ZM166.656 171.19L165.978 171.382C165.936 171.269 165.873 171.159 165.79 171.053C165.709 170.944 165.598 170.855 165.457 170.784C165.317 170.714 165.137 170.679 164.917 170.679C164.617 170.679 164.366 170.748 164.166 170.887C163.968 171.023 163.869 171.197 163.869 171.408C163.869 171.595 163.937 171.743 164.074 171.852C164.21 171.961 164.423 172.051 164.713 172.124L165.441 172.303C165.88 172.409 166.207 172.572 166.423 172.792C166.638 173.009 166.745 173.289 166.745 173.632C166.745 173.913 166.664 174.165 166.502 174.386C166.343 174.608 166.119 174.783 165.831 174.911C165.544 175.038 165.209 175.102 164.828 175.102C164.327 175.102 163.913 174.994 163.585 174.776C163.256 174.559 163.049 174.241 162.961 173.824L163.677 173.645C163.745 173.909 163.874 174.107 164.064 174.239C164.256 174.371 164.506 174.438 164.815 174.438C165.167 174.438 165.446 174.363 165.652 174.214C165.861 174.062 165.966 173.881 165.966 173.67C165.966 173.5 165.906 173.357 165.787 173.242C165.667 173.125 165.484 173.038 165.237 172.98L164.419 172.788C163.969 172.682 163.639 172.517 163.428 172.293C163.219 172.067 163.115 171.785 163.115 171.446C163.115 171.169 163.192 170.924 163.348 170.711C163.506 170.498 163.72 170.331 163.99 170.209C164.263 170.088 164.572 170.027 164.917 170.027C165.403 170.027 165.784 170.134 166.061 170.347C166.341 170.56 166.539 170.841 166.656 171.19ZM169.734 175.102C169.325 175.102 168.964 174.999 168.651 174.792C168.338 174.583 168.093 174.289 167.916 173.91C167.739 173.529 167.651 173.078 167.651 172.558C167.651 172.043 167.739 171.595 167.916 171.216C168.093 170.837 168.339 170.544 168.654 170.337C168.97 170.13 169.334 170.027 169.747 170.027C170.067 170.027 170.319 170.08 170.505 170.187C170.692 170.291 170.835 170.411 170.933 170.545C171.033 170.677 171.111 170.786 171.166 170.871H171.23V168.455H171.984V175H171.256V174.246H171.166C171.111 174.335 171.032 174.448 170.93 174.585C170.828 174.719 170.682 174.839 170.492 174.946C170.302 175.05 170.05 175.102 169.734 175.102ZM169.837 174.425C170.139 174.425 170.395 174.346 170.604 174.188C170.813 174.028 170.971 173.808 171.08 173.527C171.189 173.243 171.243 172.916 171.243 172.545C171.243 172.179 171.19 171.858 171.083 171.583C170.977 171.306 170.819 171.091 170.61 170.938C170.401 170.782 170.144 170.705 169.837 170.705C169.517 170.705 169.251 170.787 169.038 170.951C168.827 171.113 168.668 171.333 168.562 171.612C168.457 171.889 168.405 172.2 168.405 172.545C168.405 172.895 168.458 173.212 168.565 173.498C168.673 173.781 168.833 174.007 169.044 174.175C169.257 174.342 169.521 174.425 169.837 174.425ZM174.915 175.115C174.604 175.115 174.322 175.056 174.068 174.939C173.815 174.82 173.613 174.648 173.464 174.425C173.315 174.199 173.241 173.926 173.241 173.607C173.241 173.325 173.296 173.097 173.407 172.923C173.517 172.746 173.666 172.607 173.851 172.507C174.036 172.407 174.241 172.332 174.465 172.283C174.69 172.232 174.917 172.192 175.145 172.162C175.444 172.124 175.685 172.095 175.871 172.076C176.058 172.054 176.195 172.019 176.28 171.97C176.367 171.921 176.411 171.836 176.411 171.714V171.689C176.411 171.374 176.325 171.129 176.152 170.954C175.982 170.779 175.723 170.692 175.375 170.692C175.015 170.692 174.733 170.771 174.528 170.928C174.324 171.086 174.18 171.254 174.097 171.433L173.381 171.178C173.509 170.879 173.679 170.647 173.892 170.481C174.108 170.312 174.342 170.195 174.596 170.129C174.851 170.061 175.103 170.027 175.35 170.027C175.508 170.027 175.689 170.046 175.893 170.085C176.1 170.121 176.299 170.196 176.491 170.311C176.685 170.426 176.846 170.6 176.973 170.832C177.101 171.065 177.165 171.376 177.165 171.766V175H176.411V174.335H176.373C176.321 174.442 176.236 174.556 176.117 174.677C175.998 174.799 175.839 174.902 175.641 174.987C175.443 175.072 175.201 175.115 174.915 175.115ZM175.03 174.438C175.329 174.438 175.58 174.379 175.785 174.262C175.991 174.145 176.147 173.993 176.251 173.808C176.358 173.623 176.411 173.428 176.411 173.223V172.533C176.379 172.571 176.309 172.606 176.2 172.638C176.093 172.668 175.97 172.695 175.829 172.718C175.691 172.739 175.555 172.759 175.423 172.776C175.293 172.79 175.188 172.803 175.107 172.814C174.911 172.839 174.728 172.881 174.557 172.939C174.389 172.994 174.253 173.078 174.148 173.191C174.046 173.302 173.995 173.453 173.995 173.645C173.995 173.907 174.092 174.105 174.286 174.239C174.482 174.371 174.73 174.438 175.03 174.438ZM178.852 176.841C178.724 176.841 178.61 176.83 178.51 176.809C178.41 176.79 178.341 176.771 178.302 176.751L178.494 176.087C178.677 176.134 178.839 176.151 178.98 176.138C179.12 176.125 179.245 176.062 179.354 175.949C179.464 175.838 179.566 175.658 179.657 175.409L179.798 175.026L177.983 170.091H178.801L180.156 174.003H180.207L181.562 170.091H182.38L180.297 175.716C180.203 175.969 180.087 176.179 179.948 176.346C179.81 176.514 179.649 176.638 179.466 176.719C179.284 176.8 179.08 176.841 178.852 176.841Z" fill="#4F4F4F"/>
<path d="M277.482 175L275.692 168.455H276.497L277.865 173.786H277.929L279.322 168.455H280.217L281.611 173.786H281.675L283.043 168.455H283.848L282.058 175H281.24L279.795 169.784H279.744L278.3 175H277.482ZM286.335 175.102C285.862 175.102 285.453 174.998 285.11 174.789C284.77 174.578 284.506 174.284 284.321 173.907C284.138 173.528 284.046 173.087 284.046 172.584C284.046 172.081 284.138 171.638 284.321 171.254C284.506 170.869 284.764 170.568 285.094 170.353C285.427 170.136 285.815 170.027 286.258 170.027C286.513 170.027 286.766 170.07 287.015 170.155C287.265 170.24 287.491 170.379 287.696 170.57C287.901 170.76 288.064 171.011 288.185 171.325C288.306 171.638 288.367 172.023 288.367 172.482V172.801H284.583V172.149H287.6C287.6 171.872 287.545 171.625 287.434 171.408C287.325 171.19 287.17 171.019 286.967 170.893C286.767 170.767 286.531 170.705 286.258 170.705C285.957 170.705 285.697 170.779 285.478 170.928C285.261 171.075 285.093 171.267 284.976 171.504C284.859 171.74 284.8 171.994 284.8 172.264V172.699C284.8 173.07 284.864 173.384 284.992 173.642C285.122 173.897 285.302 174.092 285.532 174.227C285.762 174.359 286.03 174.425 286.335 174.425C286.533 174.425 286.712 174.397 286.871 174.342C287.033 174.284 287.173 174.199 287.29 174.086C287.407 173.971 287.498 173.828 287.562 173.658L288.29 173.862C288.214 174.109 288.085 174.327 287.904 174.514C287.723 174.7 287.499 174.844 287.233 174.949C286.966 175.051 286.667 175.102 286.335 175.102ZM291.368 175.102C290.959 175.102 290.598 174.999 290.285 174.792C289.972 174.583 289.727 174.289 289.55 173.91C289.373 173.529 289.284 173.078 289.284 172.558C289.284 172.043 289.373 171.595 289.55 171.216C289.727 170.837 289.973 170.544 290.288 170.337C290.603 170.13 290.968 170.027 291.381 170.027C291.701 170.027 291.953 170.08 292.138 170.187C292.326 170.291 292.469 170.411 292.567 170.545C292.667 170.677 292.745 170.786 292.8 170.871H292.864V168.455H293.618V175H292.89V174.246H292.8C292.745 174.335 292.666 174.448 292.564 174.585C292.461 174.719 292.315 174.839 292.126 174.946C291.936 175.05 291.684 175.102 291.368 175.102ZM291.471 174.425C291.773 174.425 292.029 174.346 292.238 174.188C292.446 174.028 292.605 173.808 292.714 173.527C292.822 173.243 292.877 172.916 292.877 172.545C292.877 172.179 292.824 171.858 292.717 171.583C292.61 171.306 292.453 171.091 292.244 170.938C292.035 170.782 291.777 170.705 291.471 170.705C291.151 170.705 290.885 170.787 290.672 170.951C290.461 171.113 290.302 171.333 290.195 171.612C290.091 171.889 290.039 172.2 290.039 172.545C290.039 172.895 290.092 173.212 290.199 173.498C290.307 173.781 290.467 174.007 290.678 174.175C290.891 174.342 291.155 174.425 291.471 174.425ZM295.859 172.047V175H295.104V170.091H295.833V170.858H295.897C296.012 170.609 296.187 170.408 296.421 170.257C296.656 170.104 296.958 170.027 297.329 170.027C297.661 170.027 297.952 170.095 298.201 170.232C298.451 170.366 298.645 170.57 298.783 170.845C298.922 171.118 298.991 171.463 298.991 171.881V175H298.237V171.932C298.237 171.546 298.136 171.246 297.936 171.031C297.736 170.813 297.461 170.705 297.112 170.705C296.871 170.705 296.656 170.757 296.466 170.861C296.278 170.966 296.13 171.118 296.022 171.318C295.913 171.518 295.859 171.761 295.859 172.047ZM302.427 175.102C301.954 175.102 301.546 174.998 301.203 174.789C300.862 174.578 300.599 174.284 300.414 173.907C300.231 173.528 300.139 173.087 300.139 172.584C300.139 172.081 300.231 171.638 300.414 171.254C300.599 170.869 300.857 170.568 301.187 170.353C301.52 170.136 301.907 170.027 302.351 170.027C302.606 170.027 302.859 170.07 303.108 170.155C303.357 170.24 303.584 170.379 303.789 170.57C303.993 170.76 304.156 171.011 304.278 171.325C304.399 171.638 304.46 172.023 304.46 172.482V172.801H300.676V172.149H303.693C303.693 171.872 303.638 171.625 303.527 171.408C303.418 171.19 303.263 171.019 303.06 170.893C302.86 170.767 302.623 170.705 302.351 170.705C302.05 170.705 301.79 170.779 301.571 170.928C301.353 171.075 301.186 171.267 301.069 171.504C300.952 171.74 300.893 171.994 300.893 172.264V172.699C300.893 173.07 300.957 173.384 301.085 173.642C301.215 173.897 301.395 174.092 301.625 174.227C301.855 174.359 302.123 174.425 302.427 174.425C302.625 174.425 302.804 174.397 302.964 174.342C303.126 174.284 303.266 174.199 303.383 174.086C303.5 173.971 303.591 173.828 303.655 173.658L304.383 173.862C304.307 174.109 304.178 174.327 303.997 174.514C303.815 174.7 303.592 174.844 303.325 174.949C303.059 175.051 302.76 175.102 302.427 175.102ZM309.085 171.19L308.407 171.382C308.364 171.269 308.302 171.159 308.218 171.053C308.138 170.944 308.027 170.855 307.886 170.784C307.745 170.714 307.565 170.679 307.346 170.679C307.046 170.679 306.795 170.748 306.595 170.887C306.397 171.023 306.298 171.197 306.298 171.408C306.298 171.595 306.366 171.743 306.502 171.852C306.639 171.961 306.852 172.051 307.141 172.124L307.87 172.303C308.309 172.409 308.636 172.572 308.851 172.792C309.066 173.009 309.174 173.289 309.174 173.632C309.174 173.913 309.093 174.165 308.931 174.386C308.771 174.608 308.548 174.783 308.26 174.911C307.972 175.038 307.638 175.102 307.256 175.102C306.756 175.102 306.341 174.994 306.013 174.776C305.685 174.559 305.477 174.241 305.39 173.824L306.106 173.645C306.174 173.909 306.303 174.107 306.493 174.239C306.684 174.371 306.935 174.438 307.244 174.438C307.595 174.438 307.874 174.363 308.081 174.214C308.29 174.062 308.394 173.881 308.394 173.67C308.394 173.5 308.335 173.357 308.215 173.242C308.096 173.125 307.913 173.038 307.666 172.98L306.847 172.788C306.398 172.682 306.068 172.517 305.857 172.293C305.648 172.067 305.543 171.785 305.543 171.446C305.543 171.169 305.621 170.924 305.777 170.711C305.934 170.498 306.149 170.331 306.419 170.209C306.692 170.088 307.001 170.027 307.346 170.027C307.832 170.027 308.213 170.134 308.49 170.347C308.769 170.56 308.967 170.841 309.085 171.19ZM312.163 175.102C311.754 175.102 311.393 174.999 311.08 174.792C310.767 174.583 310.521 174.289 310.345 173.91C310.168 173.529 310.079 173.078 310.079 172.558C310.079 172.043 310.168 171.595 310.345 171.216C310.521 170.837 310.768 170.544 311.083 170.337C311.398 170.13 311.763 170.027 312.176 170.027C312.496 170.027 312.748 170.08 312.933 170.187C313.121 170.291 313.264 170.411 313.362 170.545C313.462 170.677 313.54 170.786 313.595 170.871H313.659V168.455H314.413V175H313.684V174.246H313.595C313.54 174.335 313.461 174.448 313.358 174.585C313.256 174.719 313.11 174.839 312.921 174.946C312.731 175.05 312.479 175.102 312.163 175.102ZM312.265 174.425C312.568 174.425 312.824 174.346 313.032 174.188C313.241 174.028 313.4 173.808 313.509 173.527C313.617 173.243 313.672 172.916 313.672 172.545C313.672 172.179 313.618 171.858 313.512 171.583C313.405 171.306 313.248 171.091 313.039 170.938C312.83 170.782 312.572 170.705 312.265 170.705C311.946 170.705 311.68 170.787 311.466 170.951C311.256 171.113 311.097 171.333 310.99 171.612C310.886 171.889 310.834 172.2 310.834 172.545C310.834 172.895 310.887 173.212 310.993 173.498C311.102 173.781 311.262 174.007 311.473 174.175C311.686 174.342 311.95 174.425 312.265 174.425ZM317.344 175.115C317.033 175.115 316.751 175.056 316.497 174.939C316.243 174.82 316.042 174.648 315.893 174.425C315.744 174.199 315.669 173.926 315.669 173.607C315.669 173.325 315.725 173.097 315.835 172.923C315.946 172.746 316.094 172.607 316.28 172.507C316.465 172.407 316.67 172.332 316.893 172.283C317.119 172.232 317.346 172.192 317.574 172.162C317.872 172.124 318.114 172.095 318.3 172.076C318.487 172.054 318.623 172.019 318.709 171.97C318.796 171.921 318.84 171.836 318.84 171.714V171.689C318.84 171.374 318.753 171.129 318.581 170.954C318.41 170.779 318.151 170.692 317.804 170.692C317.444 170.692 317.162 170.771 316.957 170.928C316.753 171.086 316.609 171.254 316.526 171.433L315.81 171.178C315.938 170.879 316.108 170.647 316.321 170.481C316.536 170.312 316.771 170.195 317.024 170.129C317.28 170.061 317.531 170.027 317.779 170.027C317.936 170.027 318.117 170.046 318.322 170.085C318.529 170.121 318.728 170.196 318.92 170.311C319.113 170.426 319.274 170.6 319.402 170.832C319.53 171.065 319.594 171.376 319.594 171.766V175H318.84V174.335H318.801C318.75 174.442 318.665 174.556 318.546 174.677C318.426 174.799 318.268 174.902 318.069 174.987C317.871 175.072 317.629 175.115 317.344 175.115ZM317.459 174.438C317.757 174.438 318.009 174.379 318.213 174.262C318.42 174.145 318.575 173.993 318.68 173.808C318.786 173.623 318.84 173.428 318.84 173.223V172.533C318.808 172.571 318.737 172.606 318.629 172.638C318.522 172.668 318.399 172.695 318.258 172.718C318.119 172.739 317.984 172.759 317.852 172.776C317.722 172.79 317.617 172.803 317.536 172.814C317.34 172.839 317.156 172.881 316.986 172.939C316.818 172.994 316.681 173.078 316.577 173.191C316.475 173.302 316.423 173.453 316.423 173.645C316.423 173.907 316.52 174.105 316.714 174.239C316.91 174.371 317.159 174.438 317.459 174.438ZM321.281 176.841C321.153 176.841 321.039 176.83 320.939 176.809C320.839 176.79 320.769 176.771 320.731 176.751L320.923 176.087C321.106 176.134 321.268 176.151 321.408 176.138C321.549 176.125 321.674 176.062 321.782 175.949C321.893 175.838 321.994 175.658 322.086 175.409L322.227 175.026L320.411 170.091H321.229L322.585 174.003H322.636L323.991 170.091H324.809L322.725 175.716C322.631 175.969 322.515 176.179 322.377 176.346C322.238 176.514 322.078 176.638 321.894 176.719C321.713 176.8 321.509 176.841 321.281 176.841Z" fill="#4F4F4F"/>
<path d="M402.782 169.158V168.455H407.691V169.158H405.633V175H404.841V169.158H402.782ZM409.567 172.047V175H408.812V168.455H409.567V170.858H409.631C409.746 170.604 409.918 170.403 410.148 170.254C410.381 170.103 410.69 170.027 411.075 170.027C411.41 170.027 411.703 170.094 411.954 170.228C412.206 170.36 412.4 170.564 412.539 170.839C412.68 171.112 412.75 171.459 412.75 171.881V175H411.996V171.932C411.996 171.542 411.894 171.24 411.692 171.027C411.492 170.812 411.214 170.705 410.858 170.705C410.611 170.705 410.389 170.757 410.193 170.861C409.999 170.966 409.846 171.118 409.733 171.318C409.622 171.518 409.567 171.761 409.567 172.047ZM417.224 172.993V170.091H417.978V175H417.224V174.169H417.172C417.057 174.418 416.878 174.63 416.635 174.805C416.393 174.978 416.086 175.064 415.715 175.064C415.408 175.064 415.135 174.997 414.897 174.863C414.658 174.726 414.471 174.522 414.334 174.249C414.198 173.974 414.13 173.628 414.13 173.21V170.091H414.884V173.159C414.884 173.517 414.984 173.803 415.184 174.016C415.387 174.229 415.645 174.335 415.958 174.335C416.145 174.335 416.336 174.287 416.53 174.191C416.726 174.096 416.89 173.949 417.022 173.75C417.156 173.552 417.224 173.3 417.224 172.993ZM419.359 175V170.091H420.088V170.832H420.139C420.229 170.589 420.391 170.392 420.625 170.241C420.859 170.09 421.123 170.014 421.418 170.014C421.473 170.014 421.542 170.015 421.625 170.017C421.708 170.02 421.771 170.023 421.814 170.027V170.794C421.788 170.788 421.73 170.778 421.638 170.765C421.549 170.75 421.454 170.743 421.354 170.743C421.115 170.743 420.902 170.793 420.714 170.893C420.529 170.991 420.382 171.127 420.273 171.302C420.167 171.475 420.114 171.672 420.114 171.893V175H419.359ZM426.185 171.19L425.508 171.382C425.465 171.269 425.402 171.159 425.319 171.053C425.238 170.944 425.127 170.855 424.987 170.784C424.846 170.714 424.666 170.679 424.447 170.679C424.146 170.679 423.896 170.748 423.695 170.887C423.497 171.023 423.398 171.197 423.398 171.408C423.398 171.595 423.466 171.743 423.603 171.852C423.739 171.961 423.952 172.051 424.242 172.124L424.971 172.303C425.41 172.409 425.737 172.572 425.952 172.792C426.167 173.009 426.275 173.289 426.275 173.632C426.275 173.913 426.194 174.165 426.032 174.386C425.872 174.608 425.648 174.783 425.361 174.911C425.073 175.038 424.738 175.102 424.357 175.102C423.856 175.102 423.442 174.994 423.114 174.776C422.786 174.559 422.578 174.241 422.491 173.824L423.206 173.645C423.275 173.909 423.404 174.107 423.593 174.239C423.785 174.371 424.035 174.438 424.344 174.438C424.696 174.438 424.975 174.363 425.182 174.214C425.39 174.062 425.495 173.881 425.495 173.67C425.495 173.5 425.435 173.357 425.316 173.242C425.197 173.125 425.013 173.038 424.766 172.98L423.948 172.788C423.498 172.682 423.168 172.517 422.957 172.293C422.748 172.067 422.644 171.785 422.644 171.446C422.644 171.169 422.722 170.924 422.877 170.711C423.035 170.498 423.249 170.331 423.52 170.209C423.792 170.088 424.101 170.027 424.447 170.027C424.932 170.027 425.314 170.134 425.591 170.347C425.87 170.56 426.068 170.841 426.185 171.19ZM429.264 175.102C428.855 175.102 428.494 174.999 428.18 174.792C427.867 174.583 427.622 174.289 427.445 173.91C427.268 173.529 427.18 173.078 427.18 172.558C427.18 172.043 427.268 171.595 427.445 171.216C427.622 170.837 427.868 170.544 428.184 170.337C428.499 170.13 428.863 170.027 429.277 170.027C429.596 170.027 429.849 170.08 430.034 170.187C430.222 170.291 430.364 170.411 430.462 170.545C430.562 170.677 430.64 170.786 430.696 170.871H430.759V168.455H431.514V175H430.785V174.246H430.696C430.64 174.335 430.561 174.448 430.459 174.585C430.357 174.719 430.211 174.839 430.021 174.946C429.832 175.05 429.579 175.102 429.264 175.102ZM429.366 174.425C429.669 174.425 429.924 174.346 430.133 174.188C430.342 174.028 430.501 173.808 430.609 173.527C430.718 173.243 430.772 172.916 430.772 172.545C430.772 172.179 430.719 171.858 430.612 171.583C430.506 171.306 430.348 171.091 430.139 170.938C429.931 170.782 429.673 170.705 429.366 170.705C429.046 170.705 428.78 170.787 428.567 170.951C428.356 171.113 428.197 171.333 428.091 171.612C427.986 171.889 427.934 172.2 427.934 172.545C427.934 172.895 427.987 173.212 428.094 173.498C428.203 173.781 428.362 174.007 428.573 174.175C428.786 174.342 429.051 174.425 429.366 174.425ZM434.445 175.115C434.133 175.115 433.851 175.056 433.598 174.939C433.344 174.82 433.143 174.648 432.994 174.425C432.844 174.199 432.77 173.926 432.77 173.607C432.77 173.325 432.825 173.097 432.936 172.923C433.047 172.746 433.195 172.607 433.38 172.507C433.566 172.407 433.77 172.332 433.994 172.283C434.22 172.232 434.447 172.192 434.675 172.162C434.973 172.124 435.215 172.095 435.4 172.076C435.588 172.054 435.724 172.019 435.809 171.97C435.897 171.921 435.94 171.836 435.94 171.714V171.689C435.94 171.374 435.854 171.129 435.681 170.954C435.511 170.779 435.252 170.692 434.905 170.692C434.545 170.692 434.262 170.771 434.058 170.928C433.853 171.086 433.709 171.254 433.626 171.433L432.91 171.178C433.038 170.879 433.209 170.647 433.422 170.481C433.637 170.312 433.871 170.195 434.125 170.129C434.381 170.061 434.632 170.027 434.879 170.027C435.037 170.027 435.218 170.046 435.422 170.085C435.629 170.121 435.828 170.196 436.02 170.311C436.214 170.426 436.375 170.6 436.503 170.832C436.631 171.065 436.695 171.376 436.695 171.766V175H435.94V174.335H435.902C435.851 174.442 435.766 174.556 435.646 174.677C435.527 174.799 435.368 174.902 435.17 174.987C434.972 175.072 434.73 175.115 434.445 175.115ZM434.56 174.438C434.858 174.438 435.109 174.379 435.314 174.262C435.521 174.145 435.676 173.993 435.78 173.808C435.887 173.623 435.94 173.428 435.94 173.223V172.533C435.908 172.571 435.838 172.606 435.729 172.638C435.623 172.668 435.499 172.695 435.359 172.718C435.22 172.739 435.085 172.759 434.953 172.776C434.823 172.79 434.717 172.803 434.636 172.814C434.44 172.839 434.257 172.881 434.087 172.939C433.918 172.994 433.782 173.078 433.677 173.191C433.575 173.302 433.524 173.453 433.524 173.645C433.524 173.907 433.621 174.105 433.815 174.239C434.011 174.371 434.259 174.438 434.56 174.438ZM438.381 176.841C438.253 176.841 438.139 176.83 438.039 176.809C437.939 176.79 437.87 176.771 437.831 176.751L438.023 176.087C438.206 176.134 438.368 176.151 438.509 176.138C438.65 176.125 438.774 176.062 438.883 175.949C438.994 175.838 439.095 175.658 439.187 175.409L439.327 175.026L437.512 170.091H438.33L439.685 174.003H439.736L441.091 170.091H441.91L439.826 175.716C439.732 175.969 439.616 176.179 439.477 176.346C439.339 176.514 439.178 176.638 438.995 176.719C438.814 176.8 438.609 176.841 438.381 176.841Z" fill="#4F4F4F"/>
<path d="M524.357 174V167.455H528.282V168.158H525.15V170.369H527.988V171.072H525.15V174H524.357ZM529.484 174V169.091H530.213V169.832H530.264C530.354 169.589 530.516 169.392 530.75 169.241C530.984 169.09 531.248 169.014 531.543 169.014C531.598 169.014 531.667 169.015 531.75 169.017C531.833 169.02 531.896 169.023 531.939 169.027V169.794C531.913 169.788 531.855 169.778 531.763 169.765C531.674 169.75 531.579 169.743 531.479 169.743C531.24 169.743 531.027 169.793 530.839 169.893C530.654 169.991 530.507 170.127 530.398 170.302C530.292 170.475 530.239 170.672 530.239 170.893V174H529.484ZM532.833 174V169.091H533.587V174H532.833ZM533.216 168.273C533.069 168.273 532.943 168.223 532.836 168.123C532.732 168.022 532.68 167.902 532.68 167.761C532.68 167.621 532.732 167.5 532.836 167.4C532.943 167.3 533.069 167.25 533.216 167.25C533.363 167.25 533.489 167.3 533.594 167.4C533.7 167.5 533.753 167.621 533.753 167.761C533.753 167.902 533.7 168.022 533.594 168.123C533.489 168.223 533.363 168.273 533.216 168.273ZM536.822 174.102C536.413 174.102 536.052 173.999 535.739 173.792C535.426 173.583 535.181 173.289 535.004 172.91C534.827 172.529 534.739 172.078 534.739 171.558C534.739 171.043 534.827 170.595 535.004 170.216C535.181 169.837 535.427 169.544 535.742 169.337C536.057 169.13 536.422 169.027 536.835 169.027C537.155 169.027 537.407 169.08 537.593 169.187C537.78 169.291 537.923 169.411 538.021 169.545C538.121 169.677 538.199 169.786 538.254 169.871H538.318V167.455H539.072V174H538.344V173.246H538.254C538.199 173.335 538.12 173.448 538.018 173.585C537.915 173.719 537.769 173.839 537.58 173.946C537.39 174.05 537.138 174.102 536.822 174.102ZM536.925 173.425C537.227 173.425 537.483 173.346 537.692 173.188C537.9 173.028 538.059 172.808 538.168 172.527C538.277 172.243 538.331 171.916 538.331 171.545C538.331 171.179 538.278 170.858 538.171 170.583C538.065 170.306 537.907 170.091 537.698 169.938C537.489 169.782 537.231 169.705 536.925 169.705C536.605 169.705 536.339 169.787 536.126 169.951C535.915 170.113 535.756 170.333 535.649 170.612C535.545 170.889 535.493 171.2 535.493 171.545C535.493 171.895 535.546 172.212 535.653 172.498C535.761 172.781 535.921 173.007 536.132 173.175C536.345 173.342 536.609 173.425 536.925 173.425ZM542.003 174.115C541.692 174.115 541.41 174.056 541.156 173.939C540.903 173.82 540.701 173.648 540.552 173.425C540.403 173.199 540.328 172.926 540.328 172.607C540.328 172.325 540.384 172.097 540.495 171.923C540.605 171.746 540.753 171.607 540.939 171.507C541.124 171.407 541.329 171.332 541.552 171.283C541.778 171.232 542.005 171.192 542.233 171.162C542.532 171.124 542.773 171.095 542.959 171.076C543.146 171.054 543.283 171.019 543.368 170.97C543.455 170.921 543.499 170.836 543.499 170.714V170.689C543.499 170.374 543.413 170.129 543.24 169.954C543.07 169.779 542.811 169.692 542.463 169.692C542.103 169.692 541.821 169.771 541.616 169.928C541.412 170.086 541.268 170.254 541.185 170.433L540.469 170.178C540.597 169.879 540.767 169.647 540.98 169.481C541.196 169.312 541.43 169.195 541.684 169.129C541.939 169.061 542.191 169.027 542.438 169.027C542.595 169.027 542.777 169.046 542.981 169.085C543.188 169.121 543.387 169.196 543.579 169.311C543.773 169.426 543.934 169.6 544.061 169.832C544.189 170.065 544.253 170.376 544.253 170.766V174H543.499V173.335H543.46C543.409 173.442 543.324 173.556 543.205 173.677C543.085 173.799 542.927 173.902 542.729 173.987C542.53 174.072 542.289 174.115 542.003 174.115ZM542.118 173.438C542.416 173.438 542.668 173.379 542.872 173.262C543.079 173.145 543.235 172.993 543.339 172.808C543.446 172.623 543.499 172.428 543.499 172.223V171.533C543.467 171.571 543.397 171.606 543.288 171.638C543.181 171.668 543.058 171.695 542.917 171.718C542.779 171.739 542.643 171.759 542.511 171.776C542.381 171.79 542.276 171.803 542.195 171.814C541.999 171.839 541.816 171.881 541.645 171.939C541.477 171.994 541.34 172.078 541.236 172.191C541.134 172.302 541.083 172.453 541.083 172.645C541.083 172.907 541.18 173.105 541.373 173.239C541.57 173.371 541.818 173.438 542.118 173.438ZM545.94 175.841C545.812 175.841 545.698 175.83 545.598 175.809C545.498 175.79 545.428 175.771 545.39 175.751L545.582 175.087C545.765 175.134 545.927 175.151 546.068 175.138C546.208 175.125 546.333 175.062 546.442 174.949C546.552 174.838 546.654 174.658 546.745 174.409L546.886 174.026L545.07 169.091H545.889L547.244 173.003H547.295L548.65 169.091H549.468L547.384 174.716C547.291 174.969 547.175 175.179 547.036 175.346C546.898 175.514 546.737 175.638 546.553 175.719C546.372 175.8 546.168 175.841 545.94 175.841Z" fill="#4F4F4F"/>
<path d="M24 141.035C67.5 124 176.44 118 225.5 118C283.5 118 329.913 104.274 356.082 92.7579C382.252 81.2423 412.031 65.2976 461.663 86.1143C511.295 106.931 533.854 127.305 551 129.076" stroke="#B78AF7" stroke-width="3"/>
<path d="M24 62.0003C67.5 79.0352 176.44 85.0352 225.5 85.0352C283.5 85.0352 329.913 98.7616 356.082 110.277C382.252 121.793 412.031 137.738 461.663 116.921C511.295 96.1042 533.854 75.7305 551 73.9588" stroke="#00A814" stroke-width="3"/>
<circle cx="23.1895" cy="140.457" r="3" fill="#B78AF7"/>
<circle cx="155" cy="121" r="3" fill="#B78AF7"/>
<circle cx="286" cy="113" r="3" fill="#B78AF7"/>
<circle cx="419" cy="76" r="3" fill="#B78AF7"/>
<circle cx="549" cy="129.096" r="3" fill="#B78AF7"/>
<path d="M23 132C66.0222 120.56 184.92 96.184 316.333 90.2C447.747 84.216 527.533 71.5733 551 66" stroke="#9654F4" stroke-width="3"/>
<circle cx="23.1895" cy="131.223" r="3" fill="#9654F4"/>
<circle cx="155" cy="107" r="3" fill="#9654F4"/>
<circle cx="285" cy="92" r="3" fill="#9654F4"/>
<circle cx="419" cy="84" r="3" fill="#9654F4"/>
<circle cx="550" cy="66" r="3" fill="#9654F4"/>
<circle cx="550" cy="103" r="3" fill="#E00B2B"/>
<circle cx="419" cy="64" r="3" fill="#E00B2B"/>
<circle cx="286" cy="76" r="3" fill="#E00B2B"/>
<circle cx="155" cy="51" r="3" fill="#E00B2B"/>
<circle cx="24" cy="11" r="3" fill="#E00B2B"/>
<circle cx="23" cy="62" r="3" fill="#009712"/>
<circle cx="155" cy="83" r="3" fill="#009712"/>
<circle cx="287" cy="90" r="3" fill="#009712"/>
<circle cx="419" cy="127" r="3" fill="#009712"/>
<circle cx="550" cy="74" r="3" fill="#009712"/>
<path d="M24 97C94.387 72.7895 247.975 25.8651 299.231 31.8517C363.301 39.3349 422.86 52.9809 467.979 35.8134C504.075 22.0794 538.366 9.54864 551 5" stroke="#8133F1" stroke-width="3"/>
<path d="M23 11C93.387 35.2105 246.975 82.1349 298.231 76.1483C362.301 68.6651 421.86 55.0191 466.979 72.1866C503.075 85.9206 537.366 98.4514 550 103" stroke="#E00B2B" stroke-width="3"/>
<circle cx="3" cy="3" r="2.5" transform="matrix(1 0 0 -1 21.0664 99.8945)" fill="#8133F1" stroke="#8133F1"/>
<circle cx="3" cy="3" r="2.5" transform="matrix(1 0 0 -1 152 59.0645)" fill="#8133F1" stroke="#8133F1"/>
<circle cx="3" cy="3" r="2.5" transform="matrix(1 0 0 -1 283 34.0645)" fill="#8133F1" stroke="#8133F1"/>
<circle cx="3" cy="3" r="2.5" transform="matrix(1 0 0 -1 416 47.0645)" fill="#8133F1" stroke="#8133F1"/>
<circle cx="3" cy="3" r="2.5" transform="matrix(1 0 0 -1 547 9.06445)" fill="#8133F1" stroke="#8133F1"/>
</svg>
