<svg width="21" height="16" viewBox="0 0 21 16" fill="none" xmlns="http://www.w3.org/2000/svg">
<path d="M9.5 5C9.5 6.66 8.16 8 6.5 8C4.84 8 3.5 6.66 3.5 5C3.5 3.34 4.84 2 6.5 2C8.16 2 9.5 3.34 9.5 5ZM12.5 16H0.5V14C0.5 11.79 3.19 10 6.5 10C9.81 10 12.5 11.79 12.5 14M5.5 5C5.5 5.55 5.95 6 6.5 6C7.05 6 7.5 5.55 7.5 5C7.5 4.45 7.05 4 6.5 4C5.95 4 5.5 4.45 5.5 5ZM2.5 14H10.5C10.5 12.9 8.71 12 6.5 12C4.29 12 2.5 12.9 2.5 14ZM20.5 8V10H11.5V8M20.5 4V6H11.5V4M20.5 0V2H11.5V0H20.5Z" fill="#8133F1"/>
</svg>
